<?xml version="1.0" encoding="UTF-8" standalone="no"?>
<!DOCTYPE svg PUBLIC "-//W3C//DTD SVG 1.1//EN" "http://www.w3.org/Graphics/SVG/1.1/DTD/svg11.dtd">
<svg xmlns="http://www.w3.org/2000/svg" version="1.1" viewBox="0.00 0.00 1448.00 1448.00">
<g stroke-width="2.00" fill="none" stroke-linecap="butt">
<path stroke="#716d6f" vector-effect="non-scaling-stroke" d="
  M 733.70 264.88
  Q 725.37 270.48 714.75 271.58"
/>
<path stroke="#837474" vector-effect="non-scaling-stroke" d="
  M 714.75 271.58
  L 700.34 265.00"
/>
<path stroke="#ed345f" vector-effect="non-scaling-stroke" d="
  M 722.54 376.08
  Q 725.48 369.43 725.37 363.25
  Q 724.71 325.86 724.52 294.24
  Q 724.49 289.79 723.78 287.34
  C 722.13 281.62 717.88 276.58 714.75 271.58"
/>
<path stroke="#716d6f" vector-effect="non-scaling-stroke" d="
  M 757.52 603.49
  L 746.85 603.98"
/>
<path stroke="#ed345f" vector-effect="non-scaling-stroke" d="
  M 746.85 603.98
  Q 746.43 586.82 745.65 569.74
  Q 745.17 559.11 745.23 549.75
  Q 745.56 505.24 746.10 460.87"
/>
<path stroke="#837474" vector-effect="non-scaling-stroke" d="
  M 746.85 603.98
  Q 725.08 604.06 704.34 604.03
  Q 695.09 604.01 691.19 604.65
  C 675.42 607.24 662.63 618.97 654.22 632.82
  C 647.59 643.74 635.12 645.20 623.81 641.94
  Q 619.98 640.84 616.37 635.80"
/>
<path stroke="#1eb579" vector-effect="non-scaling-stroke" d="
  M 820.34 604.75
  L 822.64 607.83
  Q 822.97 608.26 822.86 608.79
  C 822.61 610.01 822.32 610.87 822.69 612.13
  Q 825.40 621.29 828.02 630.31
  C 828.68 632.59 828.34 634.63 829.07 636.96
  Q 832.10 646.56 832.72 656.29
  C 832.80 657.55 833.62 659.14 835.00 659.47
  Q 837.83 660.14 836.96 662.79
  C 835.72 666.60 840.13 666.60 842.42 666.77
  Q 844.45 666.92 846.51 666.95
  Q 893.57 667.46 938.25 666.78
  Q 939.75 666.75 941.93 667.98"
/>
<path stroke="#106b5f" vector-effect="non-scaling-stroke" d="
  M 506.53 675.24
  Q 521.81 675.52 527.25 674.98
  Q 562.36 671.52 598.83 668.47
  Q 601.33 668.26 598.86 667.87
  Q 597.08 667.59 594.25 667.60
  C 564.24 667.76 535.02 667.12 504.18 668.00"
/>
<path stroke="#81b160" vector-effect="non-scaling-stroke" d="
  M 611.51 603.73
  Q 583.56 603.89 555.75 603.42
  Q 554.33 603.40 553.48 602.82"
/>
<path stroke="#54c466" vector-effect="non-scaling-stroke" d="
  M 901.63 603.34
  Q 896.15 603.97 893.75 603.98
  Q 875.88 604.04 858.00 604.07
  Q 857.67 604.07 856.56 603.61"
/>
<path stroke="#b8e2a9" vector-effect="non-scaling-stroke" d="
  M 856.56 603.61
  Q 858.22 597.03 860.65 591.69
  Q 863.76 584.86 869.14 576.46
  Q 873.47 569.69 873.29 561.86
  A 0.40 0.39 -18.1 0 0 872.67 561.55
  Q 850.46 576.87 843.86 603.62"
/>
<path stroke="#54c466" vector-effect="non-scaling-stroke" d="
  M 843.86 603.62
  Q 832.43 603.19 820.75 604.36
  Q 820.54 604.38 820.34 604.75"
/>
<path stroke="#3dbc71" vector-effect="non-scaling-stroke" d="
  M 820.34 604.75
  L 772.40 603.70
  Q 772.04 603.69 771.87 603.38
  L 771.67 603.04"
/>
<path stroke="#99dbb1" vector-effect="non-scaling-stroke" d="
  M 856.56 603.61
  L 843.86 603.62"
/>
<path stroke="#1eb579" vector-effect="non-scaling-stroke" d="
  M 722.39 952.08
  Q 721.57 960.42 721.62 963.25
  Q 722.12 990.04 721.72 1016.83
  C 721.67 1020.31 722.75 1023.04 724.01 1026.12"
/>
<path stroke="#54c466" vector-effect="non-scaling-stroke" d="
  M 885.82 986.85
  Q 880.60 983.71 876.97 979.77
  Q 855.02 955.98 834.77 930.51"
/>
<path stroke="#b7c04d" vector-effect="non-scaling-stroke" d="
  M 1046.94 825.55
  L 973.76 803.10"
/>
<path stroke="#b7c04d" vector-effect="non-scaling-stroke" d="
  M 1076.02 750.71
  C 1071.73 749.47 1067.72 748.27 1063.25 747.53
  Q 1031.30 742.25 999.52 735.52"
/>
<path stroke="#fe9aac" vector-effect="non-scaling-stroke" d="
  M 544.3454 295.3897
  A 7.49 5.97 89.5 0 0 550.2498 287.8479
  A 7.49 5.97 89.5 0 0 544.2146 280.4103
  A 7.49 5.97 89.5 0 0 538.3102 287.9521
  A 7.49 5.97 89.5 0 0 544.3454 295.3897"
/>
<path stroke="#ed345f" vector-effect="non-scaling-stroke" d="
  M 543.08 310.90
  C 545.75 313.59 551.70 319.54 555.81 318.79
  A 0.96 0.95 -21.7 0 0 556.44 317.33
  Q 551.62 309.91 544.33 304.80
  C 543.07 303.92 541.61 304.12 540.55 305.21
  Q 535.30 310.62 530.35 315.81
  A 1.39 1.38 -53.4 0 0 530.66 317.97
  C 534.17 319.96 539.72 313.25 542.01 310.91
  Q 542.54 310.36 543.08 310.90"
/>
<path stroke="#fe9aac" vector-effect="non-scaling-stroke" d="
  M 549.28 331.55
  A 5.75 5.75 0.0 0 0 543.53 325.80
  L 543.01 325.80
  A 5.75 5.75 0.0 0 0 537.26 331.55
  L 537.26 355.37
  A 5.75 5.75 0.0 0 0 543.01 361.12
  L 543.53 361.12
  A 5.75 5.75 0.0 0 0 549.28 355.37
  L 549.28 331.55"
/>
<path stroke="#ed345f" vector-effect="non-scaling-stroke" d="
  M 643.93 612.81
  C 647.99 602.64 659.29 593.71 668.77 589.55
  Q 681.82 583.82 697.41 586.63
  Q 699.83 587.07 699.99 584.62
  L 700.02 584.16
  Q 700.22 581.10 697.23 580.39
  C 674.98 575.15 653.18 587.47 640.21 605.19
  Q 635.78 611.23 635.50 618.58
  Q 635.44 620.23 636.98 620.75
  C 640.82 622.05 642.81 615.60 643.93 612.81"
/>
<path stroke="#106b5f" vector-effect="non-scaling-stroke" d="
  M 643.84 669.74
  C 645.50 674.48 648.19 674.50 652.50 674.63
  C 680.65 675.48 712.85 673.02 742.86 669.80
  C 755.23 668.47 768.29 669.00 780.58 668.94
  Q 781.32 668.93 781.40 668.21
  L 781.43 667.85
  A 0.42 0.42 0.0 0 0 781.01 667.38
  Q 718.17 667.71 658.69 667.21
  C 654.15 667.17 649.47 667.59 644.93 668.04
  Q 643.30 668.20 643.84 669.74"
/>
</g>
<path fill="#07ad83" d="
  M 733.70 264.88
  Q 725.37 270.48 714.75 271.58
  L 700.34 265.00
  C 702.09 259.89 705.42 250.98 709.96 247.42
  Q 720.06 239.51 732.15 239.16
  C 736.39 239.03 740.75 240.25 744.97 240.81
  A 1.36 1.35 10.8 0 1 746.11 242.48
  Q 743.02 255.00 733.70 264.88
  Z"
/>
<path fill="#ff3b64" d="
  M 542.07 377.08
  C 521.31 376.59 502.95 365.34 491.08 348.38
  C 480.53 333.31 478.77 314.53 483.99 296.89
  C 487.54 284.87 494.55 276.64 503.55 268.12
  Q 507.23 264.63 511.61 262.59
  C 516.22 260.45 520.50 257.81 525.39 256.67
  Q 533.92 254.69 538.50 254.20
  Q 548.88 253.08 560.58 255.91
  C 568.61 257.84 576.08 262.03 583.04 265.95
  C 588.76 269.17 593.73 276.17 597.67 281.40
  C 601.34 286.27 603.13 291.56 605.11 297.07
  Q 606.59 301.19 607.02 305.67
  C 607.41 309.67 608.61 313.42 607.97 317.53
  Q 607.27 322.00 606.96 326.67
  Q 606.75 329.78 605.42 333.14
  C 603.49 338.00 602.10 343.24 599.18 347.38
  Q 593.65 355.19 588.28 360.56
  C 585.01 363.82 580.78 366.07 576.68 368.37
  Q 568.48 372.97 562.63 374.74
  Q 553.99 377.36 542.07 377.08
  Z
  M 544.3454 295.3897
  A 7.49 5.97 89.5 0 0 550.2498 287.8479
  A 7.49 5.97 89.5 0 0 544.2146 280.4103
  A 7.49 5.97 89.5 0 0 538.3102 287.9521
  A 7.49 5.97 89.5 0 0 544.3454 295.3897
  Z
  M 543.08 310.90
  C 545.75 313.59 551.70 319.54 555.81 318.79
  A 0.96 0.95 -21.7 0 0 556.44 317.33
  Q 551.62 309.91 544.33 304.80
  C 543.07 303.92 541.61 304.12 540.55 305.21
  Q 535.30 310.62 530.35 315.81
  A 1.39 1.38 -53.4 0 0 530.66 317.97
  C 534.17 319.96 539.72 313.25 542.01 310.91
  Q 542.54 310.36 543.08 310.90
  Z
  M 549.28 331.55
  A 5.75 5.75 0.0 0 0 543.53 325.80
  L 543.01 325.80
  A 5.75 5.75 0.0 0 0 537.26 331.55
  L 537.26 355.37
  A 5.75 5.75 0.0 0 0 543.01 361.12
  L 543.53 361.12
  A 5.75 5.75 0.0 0 0 549.28 355.37
  L 549.28 331.55
  Z"
/>
<path fill="#da2d5a" d="
  M 733.70 264.88
  Q 738.71 265.44 743.60 265.53
  Q 749.21 265.62 751.79 266.49
  Q 755.52 267.73 759.31 270.13
  Q 776.08 280.77 780.36 299.57
  C 781.68 305.37 781.29 311.49 781.46 317.44
  C 781.73 327.27 778.63 336.82 775.03 346.42
  C 770.55 358.40 763.24 367.27 752.64 374.32
  C 743.80 380.20 731.90 381.45 722.54 376.08
  Q 725.48 369.43 725.37 363.25
  Q 724.71 325.86 724.52 294.24
  Q 724.49 289.79 723.78 287.34
  C 722.13 281.62 717.88 276.58 714.75 271.58
  Q 725.37 270.48 733.70 264.88
  Z"
/>
<path fill="#ff3b64" d="
  M 700.34 265.00
  L 714.75 271.58
  C 717.88 276.58 722.13 281.62 723.78 287.34
  Q 724.49 289.79 724.52 294.24
  Q 724.71 325.86 725.37 363.25
  Q 725.48 369.43 722.54 376.08
  L 719.01 373.74
  A 1.73 1.72 -44.8 0 0 717.12 373.74
  C 709.29 378.85 701.82 381.25 692.82 378.44
  Q 682.06 375.10 674.38 366.81
  Q 664.60 356.28 659.34 344.33
  C 653.88 331.94 653.96 317.60 654.62 303.69
  Q 655.18 291.85 662.76 282.28
  Q 666.11 278.06 671.90 273.10
  Q 678.07 267.80 685.59 266.21
  Q 687.86 265.73 692.95 265.57
  Q 696.65 265.46 700.34 265.00
  Z"
/>
<ellipse fill="#fcf9f4" cx="0.00" cy="0.00" transform="translate(544.28,287.90) rotate(89.5)" rx="7.49" ry="5.97"/>
<path fill="#ff3b64" d="
  M 885.20 310.33
  C 892.22 313.82 899.22 317.31 906.02 321.56
  Q 921.78 331.44 930.13 337.34
  C 951.40 352.37 970.58 370.53 989.14 389.67
  C 1001.42 402.33 1011.56 416.25 1022.31 430.41
  Q 1025.31 434.35 1027.49 437.93
  C 1034.02 448.62 1040.83 459.27 1046.33 470.42
  C 1053.15 484.24 1060.59 499.46 1065.62 513.56
  C 1071.68 530.55 1077.32 547.57 1080.82 565.30
  Q 1084.14 582.06 1086.81 598.82
  Q 1087.60 603.77 1087.76 608.28
  C 1088.00 614.88 1089.23 620.89 1088.73 627.76
  A 2.67 2.66 2.0 0 1 1086.08 630.23
  Q 1049.65 630.37 1012.78 630.31
  C 1007.99 630.30 1006.58 626.51 1006.63 622.10
  C 1006.72 614.06 1006.78 606.69 1005.72 598.59
  C 1004.38 588.41 1003.13 577.86 1000.87 568.15
  Q 997.04 551.73 992.83 537.45
  C 990.09 528.15 985.51 519.03 981.65 509.95
  Q 978.79 503.21 975.90 497.68
  Q 966.08 478.86 956.69 466.06
  Q 944.67 449.67 937.83 442.41
  Q 922.21 425.81 917.11 421.37
  Q 909.00 414.29 900.89 407.35
  C 893.71 401.22 885.80 396.34 878.26 391.04
  Q 871.82 386.51 861.77 381.27
  C 852.35 376.36 843.29 370.95 833.12 366.93
  C 826.65 364.38 823.04 360.25 818.52 355.49
  Q 809.88 346.36 810.55 331.91
  C 811.37 314.43 824.56 301.84 841.24 298.90
  Q 852.35 296.95 863.59 300.98
  Q 873.59 304.58 885.20 310.33
  Z"
/>
<path fill="#da2d5a" d="
  M 542.01 310.91
  C 539.72 313.25 534.17 319.96 530.66 317.97
  A 1.39 1.38 -53.4 0 1 530.35 315.81
  Q 535.30 310.62 540.55 305.21
  C 541.61 304.12 543.07 303.92 544.33 304.80
  Q 551.62 309.91 556.44 317.33
  A 0.96 0.95 -21.7 0 1 555.81 318.79
  C 551.70 319.54 545.75 313.59 543.08 310.90
  Q 542.54 310.36 542.01 310.91
  Z"
/>
<rect fill="#fcf9f4" x="537.26" y="325.80" width="12.02" height="35.32" rx="5.75"/>
<path fill="#da2d5a" d="
  M 388.07 497.33
  C 390.59 492.25 392.83 487.12 395.41 482.11
  Q 397.39 478.26 399.23 474.26
  C 403.93 464.07 409.56 455.46 414.83 446.60
  Q 419.30 439.07 423.38 433.32
  C 431.40 422.01 439.88 410.33 449.48 400.02
  Q 454.77 394.34 460.80 387.48
  Q 462.29 385.78 464.60 383.80
  Q 466.43 382.23 468.01 384.05
  C 481.48 399.50 500.40 408.67 520.02 411.99
  Q 527.21 413.20 534.24 413.78
  A 0.68 0.67 4.7 0 1 534.86 414.50
  Q 534.81 415.29 534.24 415.82
  C 517.29 431.62 501.24 449.55 489.01 468.02
  Q 481.31 479.66 473.21 494.29
  C 467.32 504.92 462.72 516.69 457.91 528.42
  C 452.28 542.14 449.45 556.64 445.99 571.55
  Q 444.38 578.50 443.70 584.57
  Q 442.95 591.40 442.08 597.77
  C 441.28 603.62 441.80 609.22 440.90 614.96
  Q 440.06 620.35 440.32 625.15
  C 440.47 627.95 439.26 630.31 436.21 630.33
  Q 394.68 630.58 361.65 630.27
  Q 357.77 630.24 357.96 626.32
  Q 358.16 622.26 358.78 618.21
  C 359.43 613.95 358.93 609.61 359.59 605.42
  Q 361.07 596.02 362.23 587.24
  Q 365.35 563.56 371.28 544.25
  Q 376.90 525.95 384.67 504.74
  Q 385.43 502.68 388.07 497.33
  Z"
/>
<path fill="#07ad83" d="
  M 597.49 424.27
  C 603.50 425.60 609.71 427.08 614.90 430.13
  C 625.47 436.34 634.06 446.74 637.29 458.80
  Q 638.56 463.55 638.55 473.29
  Q 638.54 481.26 638.48 489.16
  A 1.58 1.57 11.5 0 1 636.30 490.60
  Q 628.77 487.53 620.83 487.14
  C 608.57 486.54 597.27 486.14 585.87 490.43
  Q 570.83 496.08 557.53 505.17
  Q 554.66 507.13 552.55 509.87
  C 550.03 513.14 547.29 516.01 544.47 519.06
  C 540.57 523.27 537.56 528.38 534.73 533.55
  A 0.46 0.46 0.0 0 1 533.98 533.64
  Q 531.29 530.65 528.90 527.41
  C 524.63 521.62 519.10 520.58 512.32 521.04
  A 1.80 1.80 0.0 0 1 510.79 518.11
  C 514.77 513.16 518.56 507.82 523.52 504.00
  Q 530.88 498.32 538.03 492.86
  A 3.07 3.07 0.0 0 0 539.24 490.42
  Q 539.26 478.91 539.24 467.86
  C 539.23 460.40 541.80 452.50 546.29 445.89
  C 549.10 441.76 552.15 437.02 556.41 434.17
  Q 559.15 432.34 561.94 430.70
  Q 569.27 426.37 577.85 425.61
  A 1.85 1.84 87.8 0 0 579.54 423.78
  L 579.75 388.49
  Q 579.77 385.49 582.76 385.49
  L 594.43 385.49
  A 1.93 1.93 0.0 0 1 596.36 387.42
  L 596.49 423.03
  Q 596.50 424.05 597.49 424.27
  Z"
/>
<path fill="#73cb5e" d="
  M 671.10 437.60
  Q 670.65 438.48 670.11 439.28
  A 0.81 0.81 0.0 0 1 668.77 439.29
  Q 663.61 431.93 655.96 425.66
  Q 655.51 425.29 655.72 424.74
  Q 655.85 424.40 656.15 424.20
  Q 664.19 418.72 669.27 411.43
  A 0.85 0.85 0.0 0 1 670.73 411.54
  Q 672.52 415.28 674.92 418.01
  C 677.45 420.88 681.17 422.59 684.38 424.71
  A 0.65 0.65 0.0 0 1 684.34 425.82
  C 678.76 428.99 674.24 431.57 671.10 437.60
  Z"
/>
<path fill="#35bd6e" d="
  M 860.94 494.49
  C 865.74 487.61 869.57 480.53 870.84 472.28
  Q 873.70 453.68 865.99 437.05
  C 862.46 429.45 857.80 421.79 852.92 414.54
  A 0.74 0.74 0.0 0 1 853.58 413.39
  Q 860.42 413.87 867.18 415.56
  C 881.06 419.02 891.14 426.57 899.79 437.44
  C 904.62 443.52 909.56 453.69 909.88 462.06
  C 910.16 469.43 910.49 476.76 909.25 484.21
  C 907.76 493.11 902.35 501.13 896.31 507.51
  C 892.84 511.18 889.24 514.97 884.79 517.39
  Q 880.31 519.83 875.63 521.92
  C 874.76 522.30 874.02 522.33 873.14 522.01
  Q 862.36 518.08 854.05 517.68
  Q 846.20 517.31 837.88 517.50
  Q 835.03 517.56 837.27 515.80
  Q 844.78 509.88 853.41 502.67
  Q 857.80 499.00 860.94 494.49
  Z"
/>
<path fill="#07ad83" d="
  M 760.93 425.44
  C 765.48 417.38 777.67 414.69 786.53 414.63
  Q 789.17 414.62 789.69 416.79
  C 791.43 424.12 788.23 431.34 781.59 434.57
  Q 773.24 438.63 764.95 437.04
  C 759.18 435.93 758.60 429.58 760.93 425.44
  Z"
/>
<path fill="#19293a" d="
  M 742.80 441.87
  C 743.08 434.01 738.82 429.04 731.42 426.89
  C 723.24 424.51 732.15 416.88 735.06 414.95
  A 1.51 1.49 38.9 0 1 736.44 414.81
  Q 740.01 416.24 743.46 417.58
  C 753.43 421.47 755.14 433.14 756.07 442.41
  Q 756.49 446.64 752.53 447.32
  Q 749.50 447.84 743.48 447.11
  A 0.68 0.67 1.6 0 1 742.89 446.49
  Q 742.72 444.24 742.80 441.87
  Z"
/>
<path fill="#da2d5a" d="
  M 757.52 603.49
  L 746.85 603.98
  Q 746.43 586.82 745.65 569.74
  Q 745.17 559.11 745.23 549.75
  Q 745.56 505.24 746.10 460.87
  Q 752.55 457.45 757.84 452.82
  C 759.94 450.99 765.53 449.81 768.75 449.72
  Q 776.28 449.52 782.72 449.86
  C 791.50 450.32 798.89 455.36 805.13 462.07
  Q 814.80 472.46 818.05 487.03
  Q 819.54 493.74 819.32 503.12
  Q 819.12 511.54 819.27 519.60
  C 819.31 521.60 817.96 523.01 816.24 523.79
  Q 806.03 528.42 795.07 535.83
  Q 792.55 537.53 790.49 539.50
  Q 783.33 546.34 777.73 552.76
  C 774.49 556.48 771.61 561.83 769.08 566.31
  Q 759.41 583.46 757.52 603.49
  Z"
/>
<path fill="#ff3b64" d="
  M 746.10 460.87
  Q 745.56 505.24 745.23 549.75
  Q 745.17 559.11 745.65 569.74
  Q 746.43 586.82 746.85 603.98
  Q 725.08 604.06 704.34 604.03
  Q 695.09 604.01 691.19 604.65
  C 675.42 607.24 662.63 618.97 654.22 632.82
  C 647.59 643.74 635.12 645.20 623.81 641.94
  Q 619.98 640.84 616.37 635.80
  Q 616.89 633.05 617.16 627.50
  Q 617.41 622.53 619.93 614.71
  Q 621.86 608.73 625.46 603.02
  Q 635.31 587.43 649.98 576.07
  C 658.13 569.75 666.03 567.41 676.25 567.19
  C 686.83 566.96 696.46 567.04 706.04 570.88
  Q 712.05 573.28 720.51 579.04
  Q 721.38 579.64 721.52 578.59
  Q 721.61 577.94 721.28 577.34
  Q 713.77 563.63 706.32 549.38
  Q 702.60 542.26 698.54 537.22
  C 694.19 531.81 689.04 527.06 683.43 522.87
  A 1.54 1.50 14.2 0 1 682.83 521.90
  C 682.22 518.35 681.25 515.01 680.93 511.36
  Q 680.12 502.30 681.20 493.45
  Q 682.41 483.52 683.55 478.48
  Q 685.10 471.68 690.67 465.39
  C 697.45 457.73 705.65 450.16 716.15 449.85
  C 720.83 449.72 726.89 449.19 731.24 450.35
  C 737.58 452.03 741.58 456.50 746.10 460.87
  Z
  M 643.93 612.81
  C 647.99 602.64 659.29 593.71 668.77 589.55
  Q 681.82 583.82 697.41 586.63
  Q 699.83 587.07 699.99 584.62
  L 700.02 584.16
  Q 700.22 581.10 697.23 580.39
  C 674.98 575.15 653.18 587.47 640.21 605.19
  Q 635.78 611.23 635.50 618.58
  Q 635.44 620.23 636.98 620.75
  C 640.82 622.05 642.81 615.60 643.93 612.81
  Z"
/>
<path fill="#fbb53c" d="
  M 611.51 603.73
  Q 583.56 603.89 555.75 603.42
  Q 554.33 603.40 553.48 602.82
  Q 551.77 599.96 549.99 597.25
  C 546.78 592.37 544.37 586.55 543.47 581.04
  Q 542.64 575.93 541.82 571.37
  Q 541.30 568.46 541.90 565.51
  C 542.79 561.14 542.89 556.85 544.08 552.51
  Q 549.50 532.53 564.41 519.61
  C 576.61 509.04 590.94 501.73 606.56 501.82
  Q 611.24 501.84 615.80 501.71
  C 631.26 501.25 644.84 507.86 656.78 517.38
  C 664.75 523.74 671.20 532.21 675.02 541.29
  Q 678.31 549.11 681.97 557.50
  A 0.33 0.32 72.4 0 1 681.74 557.95
  Q 674.67 559.47 667.38 561.62
  C 659.97 563.82 652.57 567.25 645.27 570.32
  Q 644.10 570.81 641.78 572.52
  Q 632.34 579.49 626.07 585.07
  C 620.28 590.22 616.17 597.36 611.51 603.73
  Z"
/>
<path fill="#73cb5e" d="
  M 901.63 603.34
  Q 896.15 603.97 893.75 603.98
  Q 875.88 604.04 858.00 604.07
  Q 857.67 604.07 856.56 603.61
  Q 858.22 597.03 860.65 591.69
  Q 863.76 584.86 869.14 576.46
  Q 873.47 569.69 873.29 561.86
  A 0.40 0.39 -18.1 0 0 872.67 561.55
  Q 850.46 576.87 843.86 603.62
  Q 832.43 603.19 820.75 604.36
  Q 820.54 604.38 820.34 604.75
  L 772.40 603.70
  Q 772.04 603.69 771.87 603.38
  L 771.67 603.04
  Q 773.00 592.11 774.08 589.18
  Q 786.14 556.44 816.32 539.86
  Q 833.49 530.42 854.94 532.52
  C 860.89 533.10 866.08 535.31 871.25 538.00
  A 2.30 2.28 47.1 0 0 873.22 538.08
  Q 883.78 533.61 895.70 532.35
  C 902.16 531.66 908.44 531.88 914.06 535.42
  C 916.69 537.07 917.12 539.60 916.98 542.43
  A 1.94 1.93 -89.2 0 0 918.95 544.46
  Q 924.92 544.34 931.41 544.59
  C 939.17 544.89 946.71 548.60 953.76 552.34
  Q 955.51 553.26 956.94 554.40
  A 1.64 1.63 55.1 0 1 956.44 557.23
  Q 934.46 564.57 918.19 579.70
  Q 911.82 585.63 909.80 588.83
  Q 906.54 594.03 903.20 599.21
  Q 902.04 601.02 901.63 603.34
  Z"
/>
<path fill="#fcf9f4" d="
  M 856.56 603.61
  L 843.86 603.62
  Q 850.46 576.87 872.67 561.55
  A 0.40 0.39 -18.1 0 1 873.29 561.86
  Q 873.47 569.69 869.14 576.46
  Q 863.76 584.86 860.65 591.69
  Q 858.22 597.03 856.56 603.61
  Z"
/>
<path fill="#da2d5a" d="
  M 643.93 612.81
  C 642.81 615.60 640.82 622.05 636.98 620.75
  Q 635.44 620.23 635.50 618.58
  Q 635.78 611.23 640.21 605.19
  C 653.18 587.47 674.98 575.15 697.23 580.39
  Q 700.22 581.10 700.02 584.16
  L 699.99 584.62
  Q 699.83 587.07 697.41 586.63
  Q 681.82 583.82 668.77 589.55
  C 659.29 593.71 647.99 602.64 643.93 612.81
  Z"
/>
<path fill="#07ad83" d="
  M 553.48 602.82
  Q 554.33 603.40 555.75 603.42
  Q 583.56 603.89 611.51 603.73
  Q 608.38 610.13 608.06 617.75
  Q 607.55 629.79 616.37 635.80
  Q 619.98 640.84 623.81 641.94
  C 635.12 645.20 647.59 643.74 654.22 632.82
  C 662.63 618.97 675.42 607.24 691.19 604.65
  Q 695.09 604.01 704.34 604.03
  Q 725.08 604.06 746.85 603.98
  L 757.52 603.49
  L 771.11 603.63
  Q 771.46 603.64 771.58 603.31
  L 771.67 603.04
  L 771.87 603.38
  Q 772.04 603.69 772.40 603.70
  L 820.34 604.75
  L 822.64 607.83
  Q 822.97 608.26 822.86 608.79
  C 822.61 610.01 822.32 610.87 822.69 612.13
  Q 825.40 621.29 828.02 630.31
  C 828.68 632.59 828.34 634.63 829.07 636.96
  Q 832.10 646.56 832.72 656.29
  C 832.80 657.55 833.62 659.14 835.00 659.47
  Q 837.83 660.14 836.96 662.79
  C 835.72 666.60 840.13 666.60 842.42 666.77
  Q 844.45 666.92 846.51 666.95
  Q 893.57 667.46 938.25 666.78
  Q 939.75 666.75 941.93 667.98
  Q 940.47 673.66 938.97 678.87
  C 938.53 680.37 938.57 681.91 938.26 683.48
  Q 935.10 699.19 932.22 713.51
  C 930.85 720.32 930.14 727.05 928.51 733.44
  C 926.75 740.29 926.45 748.03 924.91 754.74
  Q 921.93 767.70 919.31 780.78
  Q 915.78 798.40 912.42 814.73
  Q 911.29 820.20 909.94 825.95
  C 904.49 849.10 885.97 873.70 863.91 883.60
  C 855.48 887.38 847.25 891.06 838.20 891.68
  C 832.55 892.06 827.32 893.01 821.56 893.01
  Q 723.25 892.97 624.66 893.00
  Q 619.76 893.01 615.19 892.40
  C 610.81 891.83 606.60 891.85 602.22 890.60
  Q 593.32 888.04 588.09 885.41
  C 579.30 880.99 569.97 875.71 562.97 868.62
  Q 544.83 850.27 538.16 828.18
  C 536.35 822.17 535.65 816.59 534.45 810.51
  Q 533.71 806.75 533.16 802.97
  C 532.63 799.37 531.44 795.91 530.71 792.33
  Q 528.58 781.86 526.18 772.03
  Q 525.12 767.67 524.09 762.44
  Q 523.14 757.63 522.10 752.74
  Q 518.76 737.06 515.71 718.98
  Q 514.92 714.32 512.46 704.67
  C 511.67 701.59 511.94 698.62 511.14 695.75
  Q 508.32 685.64 506.53 675.24
  Q 521.81 675.52 527.25 674.98
  Q 562.36 671.52 598.83 668.47
  Q 601.33 668.26 598.86 667.87
  Q 597.08 667.59 594.25 667.60
  C 564.24 667.76 535.02 667.12 504.18 668.00
  C 495.51 666.85 487.98 660.42 483.32 653.42
  Q 478.54 646.25 479.03 637.58
  Q 480.08 618.79 497.66 608.85
  Q 506.80 603.68 516.25 603.64
  Q 531.52 603.58 550.00 603.60
  Q 552.48 603.61 553.48 602.82
  Z
  M 643.84 669.74
  C 645.50 674.48 648.19 674.50 652.50 674.63
  C 680.65 675.48 712.85 673.02 742.86 669.80
  C 755.23 668.47 768.29 669.00 780.58 668.94
  Q 781.32 668.93 781.40 668.21
  L 781.43 667.85
  A 0.42 0.42 0.0 0 0 781.01 667.38
  Q 718.17 667.71 658.69 667.21
  C 654.15 667.17 649.47 667.59 644.93 668.04
  Q 643.30 668.20 643.84 669.74
  Z
  M 622.73 838.70
  C 628.02 842.67 637.09 841.85 641.67 838.10
  Q 648.69 832.35 648.65 823.68
  Q 648.45 774.72 648.93 724.87
  C 648.99 719.19 644.22 714.30 639.70 711.23
  C 635.23 708.20 630.77 707.86 625.90 710.25
  Q 619.64 713.31 617.00 719.33
  Q 615.66 722.39 615.68 728.54
  Q 615.78 775.93 615.74 824.61
  Q 615.73 833.44 622.73 838.70
  Z
  M 812.04 841.09
  C 823.27 842.42 832.27 834.46 832.26 823.54
  Q 832.20 776.63 832.29 728.16
  Q 832.30 723.70 831.11 720.61
  C 826.20 707.86 811.40 704.43 802.38 715.40
  Q 798.31 720.35 798.23 727.02
  Q 797.73 770.94 798.24 823.36
  Q 798.28 826.60 799.29 829.18
  C 800.99 833.50 806.85 840.48 812.04 841.09
  Z
  M 740.6460 726.1399
  A 16.29 16.29 0.0 0 0 724.3845 709.8215
  L 722.7645 709.8187
  A 16.29 16.29 0.0 0 0 706.4461 726.0802
  L 706.2740 824.6601
  A 16.29 16.29 0.0 0 0 722.5355 840.9785
  L 724.1555 840.9813
  A 16.29 16.29 0.0 0 0 740.4739 824.7198
  L 740.6460 726.1399
  Z"
/>
<path fill="#35bd6e" d="
  M 901.63 603.34
  Q 914.45 603.61 927.16 603.61
  Q 935.49 603.61 939.94 604.58
  C 950.81 606.94 959.39 614.53 964.87 624.20
  C 967.44 628.72 967.91 633.46 967.89 638.58
  C 967.86 643.78 966.36 648.87 963.78 653.25
  C 961.82 656.57 958.53 659.42 955.62 662.18
  Q 953.57 664.12 950.18 665.36
  Q 946.01 666.88 941.93 667.98
  Q 939.75 666.75 938.25 666.78
  Q 893.57 667.46 846.51 666.95
  Q 844.45 666.92 842.42 666.77
  C 840.13 666.60 835.72 666.60 836.96 662.79
  Q 837.83 660.14 835.00 659.47
  C 833.62 659.14 832.80 657.55 832.72 656.29
  Q 832.10 646.56 829.07 636.96
  C 828.34 634.63 828.68 632.59 828.02 630.31
  Q 825.40 621.29 822.69 612.13
  C 822.32 610.87 822.61 610.01 822.86 608.79
  Q 822.97 608.26 822.64 607.83
  L 820.34 604.75
  Q 820.54 604.38 820.75 604.36
  Q 832.43 603.19 843.86 603.62
  L 856.56 603.61
  Q 857.67 604.07 858.00 604.07
  Q 875.88 604.04 893.75 603.98
  Q 896.15 603.97 901.63 603.34
  Z"
/>
<path fill="#07ad83" d="
  M 722.39 952.08
  Q 721.57 960.42 721.62 963.25
  Q 722.12 990.04 721.72 1016.83
  C 721.67 1020.31 722.75 1023.04 724.01 1026.12
  Q 715.07 1026.78 706.34 1025.70
  Q 697.62 1024.63 695.12 1024.44
  Q 689.55 1024.03 683.85 1023.52
  Q 677.71 1022.98 671.76 1021.76
  C 664.51 1020.27 657.30 1019.86 649.98 1017.78
  C 645.28 1016.45 640.17 1016.01 635.47 1014.34
  C 629.90 1012.36 623.97 1011.48 618.55 1009.70
  Q 604.71 1005.15 582.41 995.86
  Q 575.70 993.06 569.20 990.09
  C 560.62 986.17 553.04 980.98 544.62 976.85
  Q 538.64 973.91 533.23 970.10
  Q 524.09 963.66 513.68 956.71
  C 507.43 952.54 501.98 947.23 495.86 943.08
  Q 490.81 939.65 488.96 937.76
  C 481.28 929.95 472.16 922.17 465.16 915.12
  C 458.47 908.39 453.00 903.21 447.03 894.96
  C 443.02 889.42 437.80 885.13 434.13 879.34
  Q 432.30 876.44 430.16 873.69
  C 424.33 866.19 418.12 858.36 413.46 849.82
  Q 410.66 844.69 406.60 838.47
  Q 402.17 831.66 397.63 822.24
  C 392.43 811.47 386.84 800.64 382.72 789.41
  Q 376.52 772.51 370.63 755.39
  C 367.65 746.73 365.49 737.42 363.52 728.50
  C 360.22 713.58 359.93 697.47 367.88 684.24
  Q 372.20 677.05 381.51 671.75
  Q 392.04 665.76 403.49 666.56
  C 415.49 667.39 423.21 674.38 431.86 682.96
  Q 437.17 688.21 443.56 693.57
  C 447.57 696.94 450.75 701.59 454.77 705.32
  Q 462.45 712.43 469.45 719.48
  C 471.73 721.78 474.52 723.50 476.83 725.77
  Q 483.58 732.42 490.75 739.65
  C 494.25 743.17 492.74 748.18 487.40 748.24
  Q 470.44 748.42 454.98 748.64
  Q 452.41 748.67 452.56 751.24
  Q 452.70 753.57 453.92 756.77
  C 456.01 762.24 457.81 768.01 460.05 773.35
  Q 464.30 783.45 468.87 794.46
  Q 470.00 797.18 471.27 799.21
  Q 478.44 810.73 485.00 822.72
  C 485.76 824.11 486.90 825.34 487.83 826.58
  Q 498.30 840.56 507.09 851.60
  Q 513.43 859.56 519.95 865.98
  C 526.07 872.00 531.85 878.22 538.59 883.67
  Q 552.40 894.81 566.12 904.98
  Q 570.38 908.14 575.32 910.91
  Q 580.48 913.81 585.08 916.57
  Q 594.21 922.05 605.63 926.77
  Q 629.23 936.53 644.77 941.64
  C 647.73 942.61 650.96 943.41 654.06 943.72
  C 659.82 944.29 665.15 946.46 671.00 947.41
  Q 679.83 948.86 688.27 950.15
  C 692.65 950.82 697.18 950.88 701.60 951.59
  Q 704.14 952.00 706.93 952.05
  Q 714.72 952.17 722.39 952.08
  Z"
/>
<path fill="#73cb5e" d="
  M 1076.02 750.71
  C 1071.73 749.47 1067.72 748.27 1063.25 747.53
  Q 1031.30 742.25 999.52 735.52
  Q 1003.73 716.43 1007.20 697.24
  Q 1007.70 694.47 1010.50 688.64
  Q 1012.87 683.70 1015.30 680.63
  C 1021.50 672.80 1032.51 666.42 1043.09 666.70
  Q 1045.62 666.77 1047.88 666.73
  C 1053.31 666.65 1058.73 668.38 1063.76 670.77
  C 1068.96 673.24 1072.81 677.55 1076.14 682.10
  Q 1084.12 693.02 1084.33 706.96
  Q 1084.45 714.64 1083.31 720.38
  Q 1080.29 735.54 1076.02 750.71
  Z"
/>
<path fill="#19293a" d="
  M 643.84 669.74
  Q 643.30 668.20 644.93 668.04
  C 649.47 667.59 654.15 667.17 658.69 667.21
  Q 718.17 667.71 781.01 667.38
  A 0.42 0.42 0.0 0 1 781.43 667.85
  L 781.40 668.21
  Q 781.32 668.93 780.58 668.94
  C 768.29 669.00 755.23 668.47 742.86 669.80
  C 712.85 673.02 680.65 675.48 652.50 674.63
  C 648.19 674.50 645.50 674.48 643.84 669.74
  Z"
/>
<path fill="#19293a" d="
  M 506.53 675.24
  Q 506.30 671.39 504.18 668.00
  C 535.02 667.12 564.24 667.76 594.25 667.60
  Q 597.08 667.59 598.86 667.87
  Q 601.33 668.26 598.83 668.47
  Q 562.36 671.52 527.25 674.98
  Q 521.81 675.52 506.53 675.24
  Z"
/>
<path fill="#fbb53c" d="
  M 999.52 735.52
  Q 1031.30 742.25 1063.25 747.53
  C 1067.72 748.27 1071.73 749.47 1076.02 750.71
  Q 1073.93 759.18 1071.07 767.75
  Q 1061.69 795.90 1057.49 804.46
  Q 1052.21 815.21 1046.94 825.55
  L 973.76 803.10
  Q 983.12 782.77 985.92 775.95
  Q 993.05 758.62 999.52 735.52
  Z"
/>
<path fill="#73cb5e" d="
  M 973.76 803.10
  L 1046.94 825.55
  Q 1043.36 833.54 1038.87 840.67
  Q 1033.79 848.73 1033.71 848.87
  C 1025.45 862.51 1016.67 874.00 1007.26 886.50
  Q 1004.17 890.59 1001.11 893.81
  C 996.76 898.37 993.50 903.15 989.38 907.36
  Q 981.85 915.04 974.15 922.65
  Q 969.88 926.86 965.69 930.21
  C 960.18 934.63 955.78 939.99 949.87 944.08
  C 944.43 947.84 939.56 952.50 934.12 956.44
  Q 919.72 966.88 908.79 974.03
  Q 905.21 976.38 900.90 978.61
  Q 897.77 980.22 893.44 982.85
  Q 889.56 985.21 885.82 986.85
  Q 880.60 983.71 876.97 979.77
  Q 855.02 955.98 834.77 930.51
  Q 840.43 927.96 846.07 925.34
  C 855.05 921.17 863.30 916.00 871.83 910.99
  C 881.56 905.28 889.79 898.67 898.68 892.16
  Q 903.83 888.39 909.64 882.81
  Q 914.61 878.05 920.31 873.38
  C 922.22 871.82 924.23 869.83 925.74 867.89
  C 931.02 861.09 937.26 855.48 942.34 848.85
  C 945.70 844.46 949.37 840.17 952.54 835.72
  Q 963.82 819.88 973.76 803.10
  Z"
/>
<path fill="#35bd6e" d="
  M 834.77 930.51
  Q 855.02 955.98 876.97 979.77
  Q 880.60 983.71 885.82 986.85
  Q 879.46 990.35 866.26 995.58
  Q 847.47 1003.01 834.72 1007.80
  C 827.56 1010.49 818.65 1012.05 810.73 1014.60
  Q 806.77 1015.87 802.73 1016.39
  C 799.12 1016.86 795.66 1018.07 792.06 1018.77
  Q 780.94 1020.91 768.99 1022.69
  C 764.98 1023.29 761.01 1023.24 757.02 1023.93
  Q 752.96 1024.63 748.24 1024.51
  Q 745.35 1024.43 741.41 1025.19
  Q 732.78 1026.84 724.01 1026.12
  C 722.75 1023.04 721.67 1020.31 721.72 1016.83
  Q 722.12 990.04 721.62 963.25
  Q 721.57 960.42 722.39 952.08
  Q 737.07 952.68 742.50 951.98
  C 748.85 951.16 755.56 950.95 761.51 949.97
  Q 782.48 946.54 801.37 942.12
  Q 804.96 941.28 808.45 940.10
  Q 821.71 935.59 834.77 930.51
  Z"
/>
<ellipse fill="#19293a" cx="0.00" cy="0.00" transform="translate(1037.56,1062.93) rotate(-5.3)" rx="22.22" ry="21.64"/>
<path fill="#19293a" d="
  M 969.15 1082.90
  C 965.51 1081.40 961.81 1079.08 959.87 1075.45
  C 956.68 1069.46 953.58 1062.77 956.87 1056.56
  C 958.78 1052.96 960.85 1048.03 964.08 1045.66
  C 969.24 1041.89 974.53 1041.33 980.81 1041.49
  C 987.35 1041.66 992.95 1045.85 996.51 1051.02
  C 999.41 1055.24 999.88 1060.69 999.48 1065.69
  C 998.70 1075.60 991.85 1083.21 981.88 1084.25
  Q 974.29 1085.04 969.15 1082.90
  Z"
/>
<path fill="#19293a" d="
  M 685.43 1165.13
  Q 689.48 1176.37 703.18 1179.34
  Q 706.20 1180.00 713.61 1179.77
  Q 719.97 1179.57 724.09 1178.13
  Q 731.97 1175.39 738.21 1169.16
  Q 740.66 1166.72 743.75 1168.84
  Q 753.14 1175.30 759.71 1181.53
  Q 761.52 1183.25 762.97 1185.29
  Q 763.29 1185.74 763.12 1186.27
  C 761.25 1192.13 752.19 1199.25 747.45 1202.06
  C 740.61 1206.11 732.74 1210.23 724.86 1211.59
  Q 718.73 1212.64 712.97 1213.33
  C 706.94 1214.05 700.65 1212.72 694.67 1211.59
  Q 682.60 1209.30 672.02 1201.73
  C 665.08 1196.76 660.94 1193.57 656.88 1186.82
  C 653.59 1181.34 650.62 1176.16 648.53 1169.71
  Q 646.61 1163.78 645.31 1157.81
  Q 644.02 1151.87 644.54 1142.81
  Q 644.78 1138.63 645.94 1134.76
  C 648.31 1126.88 650.87 1119.36 654.95 1112.17
  C 657.27 1108.09 660.70 1105.20 663.86 1101.91
  C 672.92 1092.47 688.15 1085.40 701.25 1085.29
  Q 706.79 1085.25 713.93 1085.35
  C 720.68 1085.45 727.28 1087.10 733.56 1089.48
  C 738.14 1091.22 742.50 1094.70 746.46 1097.54
  C 756.99 1105.08 763.79 1118.48 767.61 1130.91
  Q 768.36 1133.33 768.40 1135.74
  Q 768.60 1147.72 768.38 1160.75
  A 1.82 1.82 0.0 0 1 766.56 1162.54
  L 687.25 1162.55
  Q 684.51 1162.55 685.43 1165.13
  Z
  M 699.00 1118.83
  C 693.59 1120.18 688.55 1124.82 685.92 1129.41
  C 685.09 1130.86 683.89 1132.30 685.41 1133.74
  Q 685.74 1134.06 686.20 1134.06
  L 730.23 1133.82
  A 0.92 0.91 -13.8 0 0 731.04 1132.49
  C 727.76 1126.03 722.55 1119.79 715.50 1118.54
  Q 706.57 1116.95 699.00 1118.83
  Z"
/>
<path fill="#19293a" d="
  M 896.89 1123.80
  Q 898.61 1128.29 903.82 1129.57
  C 916.65 1132.73 928.54 1137.23 938.99 1145.28
  C 945.39 1150.21 949.18 1161.65 949.61 1168.57
  Q 949.89 1172.91 949.72 1177.67
  C 949.25 1191.76 937.99 1206.24 924.76 1210.22
  Q 920.50 1211.50 916.06 1211.94
  Q 907.96 1212.73 896.14 1212.23
  Q 887.11 1211.86 879.33 1208.23
  C 872.72 1205.15 865.99 1201.64 860.15 1197.04
  Q 856.68 1194.31 858.55 1190.29
  C 859.90 1187.38 861.53 1184.53 863.51 1182.03
  Q 869.04 1175.08 873.70 1167.35
  A 1.29 1.28 -53.3 0 1 875.66 1167.06
  Q 881.69 1172.55 889.20 1176.50
  Q 897.48 1180.86 908.94 1179.56
  C 911.01 1179.33 912.95 1178.30 913.37 1176.06
  C 914.50 1169.98 908.17 1166.61 903.34 1165.27
  C 887.17 1160.81 865.89 1150.94 862.71 1132.42
  C 862.03 1128.50 861.12 1124.98 861.83 1120.83
  Q 862.49 1116.99 862.96 1113.08
  Q 863.38 1109.58 866.34 1104.63
  C 872.95 1093.58 887.36 1085.48 900.20 1085.47
  C 905.73 1085.47 912.01 1084.85 917.55 1085.75
  C 928.02 1087.44 937.86 1091.19 946.66 1097.28
  A 1.44 1.43 33.2 0 1 947.07 1099.22
  L 930.86 1125.62
  A 1.60 1.60 0.0 0 1 928.63 1126.12
  Q 919.97 1120.53 910.32 1117.68
  Q 901.29 1115.01 896.99 1122.52
  Q 896.63 1123.14 896.89 1123.80
  Z"
/>
<path fill="#19293a" d="
  M 819.85 1097.43
  A 2.05 2.05 0.0 0 0 820.67 1097.00
  C 830.69 1088.48 841.34 1086.82 853.80 1087.93
  Q 855.50 1088.08 855.50 1089.78
  L 855.51 1120.98
  A 1.84 1.83 1.3 0 1 853.58 1122.82
  C 849.23 1122.60 844.72 1122.53 840.51 1123.84
  C 834.05 1125.86 828.13 1128.70 824.59 1134.17
  Q 819.29 1142.34 819.28 1153.07
  Q 819.26 1177.86 819.22 1204.25
  C 819.22 1207.71 817.22 1210.01 813.85 1210.01
  Q 799.10 1209.99 783.14 1209.97
  A 2.77 2.77 0.0 0 1 780.55 1208.15
  C 779.68 1205.76 779.01 1203.32 779.01 1200.74
  Q 779.00 1145.43 778.99 1090.99
  A 2.01 2.01 0.0 0 1 781.00 1088.98
  L 816.24 1089.00
  Q 817.47 1089.01 817.47 1090.24
  Q 817.47 1093.53 817.81 1096.65
  Q 817.94 1097.93 819.85 1097.43
  Z"
/>
<path fill="#19293a" d="
  M 433.13 1163.13
  C 442.29 1176.54 455.71 1179.98 469.79 1171.62
  Q 476.62 1167.55 478.84 1160.92
  C 480.27 1156.63 481.31 1151.69 481.30 1147.04
  Q 481.23 1119.58 481.29 1093.86
  Q 481.30 1092.17 481.74 1090.53
  A 2.08 2.07 7.3 0 1 483.73 1089.00
  L 517.28 1088.98
  A 1.46 1.46 0.0 0 1 518.74 1090.45
  Q 518.58 1119.01 518.78 1147.59
  Q 518.88 1160.83 517.60 1166.60
  Q 514.75 1179.52 507.66 1188.70
  Q 501.46 1196.72 493.50 1202.15
  C 482.97 1209.32 470.96 1213.38 458.28 1213.63
  Q 450.43 1213.79 444.71 1213.20
  C 422.25 1210.86 403.23 1196.15 395.06 1175.56
  Q 393.71 1172.14 393.19 1168.81
  C 392.73 1165.81 392.02 1162.79 392.01 1159.79
  Q 391.90 1128.04 391.99 1092.00
  Q 392.00 1088.98 395.02 1088.98
  L 429.05 1089.00
  A 1.26 1.25 0.0 0 1 430.30 1090.24
  Q 430.48 1124.13 430.38 1154.31
  Q 430.37 1159.08 433.13 1163.13
  Z"
/>
<path fill="#19293a" d="
  M 584.68 1115.32
  A 0.81 0.81 0.0 0 0 586.06 1115.32
  L 602.06 1090.15
  A 2.49 2.49 0.0 0 1 604.17 1088.98
  L 643.70 1089.00
  A 0.88 0.88 0.0 0 1 644.43 1090.36
  L 607.79 1146.21
  Q 607.19 1147.13 607.63 1148.14
  Q 608.67 1150.48 609.83 1152.40
  C 615.73 1162.22 621.57 1171.65 627.79 1181.19
  Q 636.45 1194.45 644.43 1208.54
  A 0.77 0.76 48.8 0 1 644.38 1209.38
  Q 643.96 1209.97 643.24 1209.97
  Q 623.28 1210.03 605.23 1209.95
  C 604.09 1209.95 603.13 1209.39 602.49 1208.45
  Q 593.54 1195.53 585.34 1181.33
  A 1.06 1.06 0.0 0 0 583.54 1181.28
  L 565.88 1208.10
  A 4.22 4.21 -73.3 0 1 562.36 1210.00
  Q 544.76 1209.97 526.07 1210.00
  C 524.23 1210.01 521.90 1208.97 523.11 1206.69
  Q 525.89 1201.43 529.71 1196.42
  C 534.23 1190.49 537.50 1183.85 542.01 1177.48
  C 548.51 1168.29 554.53 1158.43 560.62 1149.28
  A 4.37 4.36 -45.4 0 0 560.59 1144.41
  C 553.65 1134.18 547.40 1124.08 540.36 1113.65
  Q 534.61 1105.12 527.40 1093.62
  C 525.76 1091.00 527.72 1089.27 530.50 1089.23
  Q 548.40 1088.98 565.75 1088.98
  Q 568.67 1088.99 570.39 1091.86
  Q 577.32 1103.47 584.68 1115.32
  Z"
/>
<path fill="#19293a" d="
  M 963.61 1210.00
  A 3.90 3.90 0.0 0 1 959.71 1206.10
  L 959.71 1092.90
  A 3.94 2.58 90.0 0 1 962.29 1088.96
  L 995.69 1088.96
  A 3.94 2.58 -90.0 0 1 998.27 1092.90
  L 998.27 1206.10
  A 3.90 3.90 0.0 0 1 994.37 1210.00
  L 963.61 1210.00
  Z"
/>
<rect fill="#19293a" x="1017.60" y="1089.00" width="39.66" height="120.98" rx="2.70"/>
</svg>
