<?xml version="1.0" encoding="UTF-8" standalone="no"?>
<!DOCTYPE svg PUBLIC "-//W3C//DTD SVG 1.1//EN" "http://www.w3.org/Graphics/SVG/1.1/DTD/svg11.dtd">
<svg xmlns="http://www.w3.org/2000/svg" version="1.1" viewBox="0.00 0.00 1448.00 1448.00">
<g stroke-width="2.00" fill="none" stroke-linecap="butt">
<path stroke="#716d6f" vector-effect="non-scaling-stroke" d="
  M 733.89 264.70
  Q 725.79 270.19 714.85 271.55"
/>
<path stroke="#837474" vector-effect="non-scaling-stroke" d="
  M 714.85 271.55
  L 700.41 264.91"
/>
<path stroke="#ed345f" vector-effect="non-scaling-stroke" d="
  M 722.53 376.05
  Q 725.56 369.30 725.45 363.77
  Q 724.76 329.39 724.86 295.00
  Q 724.88 286.82 720.40 280.09
  Q 717.65 275.95 714.85 271.55"
/>
<path stroke="#ed345f" vector-effect="non-scaling-stroke" d="
  M 746.08 460.78
  Q 745.94 502.04 745.32 543.75
  Q 745.14 555.75 745.41 562.00
  Q 746.28 582.87 746.82 603.90"
/>
<path stroke="#837474" vector-effect="non-scaling-stroke" d="
  M 746.82 603.90
  Q 722.81 604.06 699.50 603.99
  C 681.68 603.93 666.99 613.96 657.32 628.23
  Q 654.81 631.93 652.46 635.09
  C 648.90 639.90 643.44 642.36 637.40 643.17
  Q 624.09 644.95 616.49 636.18"
/>
<path stroke="#1eb579" vector-effect="non-scaling-stroke" d="
  M 820.54 605.01
  Q 821.84 606.47 822.58 608.25
  Q 822.78 608.71 822.70 609.20
  Q 822.38 611.33 822.92 613.14
  C 825.02 620.18 827.66 627.60 828.70 635.03
  Q 829.04 637.43 829.80 639.96
  Q 832.07 647.49 832.65 655.87
  Q 832.75 657.37 833.69 658.52
  C 834.64 659.69 836.14 659.61 836.86 661.05
  A 1.46 1.41 -55.8 0 1 837.00 661.86
  L 836.69 664.17
  A 0.96 0.96 0.0 0 0 836.95 664.98
  Q 838.61 666.73 841.25 666.81
  C 873.44 667.73 905.80 667.36 938.00 666.79
  Q 939.34 666.77 942.09 667.87"
/>
<path stroke="#106b5f" vector-effect="non-scaling-stroke" d="
  M 506.48 675.28
  Q 519.86 675.79 527.75 675.01
  Q 563.79 671.49 597.83 668.65
  Q 602.16 668.29 597.86 667.63
  Q 597.14 667.51 595.00 667.51
  Q 549.38 667.32 503.75 667.84"
/>
<path stroke="#716d6f" vector-effect="non-scaling-stroke" d="
  M 757.55 603.35
  L 746.82 603.90"
/>
<path stroke="#81b160" vector-effect="non-scaling-stroke" d="
  M 611.68 603.67
  L 553.62 603.16"
/>
<path stroke="#54c466" vector-effect="non-scaling-stroke" d="
  M 901.25 603.28
  Q 897.35 603.81 894.50 603.87
  Q 878.60 604.26 856.47 603.88"
/>
<path stroke="#b9e5af" vector-effect="non-scaling-stroke" d="
  M 856.47 603.88
  Q 859.33 593.48 864.45 584.62
  Q 866.73 580.68 868.95 576.82
  C 871.99 571.54 873.47 567.55 873.29 561.89
  A 0.40 0.39 71.5 0 0 872.67 561.58
  Q 850.48 576.83 843.90 603.61"
/>
<path stroke="#54c466" vector-effect="non-scaling-stroke" d="
  M 843.90 603.61
  Q 833.01 603.22 821.87 604.32
  Q 821.37 604.37 820.98 604.68
  L 820.54 605.01"
/>
<path stroke="#3dbc71" vector-effect="non-scaling-stroke" d="
  M 820.54 605.01
  Q 819.87 604.68 819.00 604.66
  Q 795.92 604.16 772.84 603.65
  Q 772.46 603.64 772.21 603.45
  Q 771.98 603.27 771.71 602.98"
/>
<path stroke="#9adeb7" vector-effect="non-scaling-stroke" d="
  M 856.47 603.88
  L 843.90 603.61"
/>
<path stroke="#1eb579" vector-effect="non-scaling-stroke" d="
  M 722.69 952.08
  Q 721.53 957.69 721.55 960.50
  Q 721.61 972.92 721.75 985.33
  Q 721.77 986.98 721.89 988.65
  C 722.09 991.42 721.71 994.21 721.72 997.00
  Q 721.75 1003.68 721.64 1016.25
  Q 721.60 1021.30 724.06 1026.16"
/>
<path stroke="#54c466" vector-effect="non-scaling-stroke" d="
  M 886.16 986.87
  Q 881.06 983.97 877.80 980.48
  Q 856.86 958.02 834.90 930.43"
/>
<path stroke="#b7c04d" vector-effect="non-scaling-stroke" d="
  M 1046.97 825.52
  L 973.73 802.97"
/>
<path stroke="#b7c04d" vector-effect="non-scaling-stroke" d="
  M 1076.01 750.87
  Q 1071.60 749.22 1068.46 748.58
  C 1055.27 745.91 1039.39 743.41 1026.17 740.82
  Q 1012.85 738.21 999.49 735.47"
/>
<path stroke="#ff9db2" vector-effect="non-scaling-stroke" d="
  M 544.3425 295.4498
  A 7.52 5.98 89.6 0 0 550.2699 287.8883
  A 7.52 5.98 89.6 0 0 544.2375 280.4102
  A 7.52 5.98 89.6 0 0 538.3101 287.9717
  A 7.52 5.98 89.6 0 0 544.3425 295.4498"
/>
<path stroke="#ed345f" vector-effect="non-scaling-stroke" d="
  M 543.10 310.92
  C 545.61 313.51 552.80 320.67 556.29 318.39
  Q 556.90 318.00 556.50 317.39
  Q 551.64 310.03 544.81 305.05
  C 543.67 304.22 542.04 303.80 540.92 304.92
  Q 535.88 309.99 530.45 315.48
  A 1.65 1.65 0.0 0 0 531.51 318.29
  C 535.28 318.56 539.78 313.63 542.07 310.95
  Q 542.57 310.37 543.10 310.92"
/>
<path stroke="#ff9db2" vector-effect="non-scaling-stroke" d="
  M 549.3207 331.6305
  A 5.81 5.81 0.0 0 0 543.5209 325.8104
  L 543.0809 325.8096
  A 5.81 5.81 0.0 0 0 537.2607 331.6095
  L 537.2193 355.3695
  A 5.81 5.81 0.0 0 0 543.0191 361.1896
  L 543.4591 361.1904
  A 5.81 5.81 0.0 0 0 549.2793 355.3905
  L 549.3207 331.6305"
/>
<path stroke="#ed345f" vector-effect="non-scaling-stroke" d="
  M 638.42 620.81
  Q 640.51 620.50 641.56 618.28
  C 643.50 614.19 645.15 609.84 647.78 606.25
  Q 652.80 599.40 661.19 593.82
  Q 677.03 583.27 696.92 586.68
  C 699.28 587.09 700.60 585.62 700.10 583.27
  Q 699.60 580.87 697.21 580.35
  C 674.54 575.40 653.85 587.04 640.12 605.31
  Q 635.98 610.80 635.50 618.18
  Q 635.29 621.27 638.42 620.81"
/>
<path stroke="#106b5f" vector-effect="non-scaling-stroke" d="
  M 663.10 674.81
  Q 688.95 674.92 720.54 671.94
  Q 735.06 670.56 748.99 669.49
  Q 759.14 668.71 780.24 669.26
  A 1.18 1.18 0.0 0 0 781.44 668.29
  L 781.50 667.99
  A 0.54 0.54 0.0 0 0 780.99 667.36
  C 769.32 667.05 755.41 667.54 745.99 667.53
  Q 701.77 667.47 657.50 667.14
  Q 653.96 667.12 645.84 667.89
  Q 642.67 668.19 644.29 670.93
  L 644.65 671.54
  Q 646.40 674.51 649.85 674.60
  Q 656.24 674.78 663.10 674.81"
/>
</g>
<path fill="#07ad83" d="
  M 733.89 264.70
  Q 725.79 270.19 714.85 271.55
  L 700.41 264.91
  Q 703.29 256.09 706.85 250.86
  Q 709.02 247.67 714.43 244.44
  C 721.84 240.01 730.07 238.32 738.46 239.76
  Q 741.75 240.32 744.98 240.86
  A 1.37 1.37 0.0 0 1 746.08 242.55
  Q 742.99 254.66 733.89 264.70
  Z"
/>
<path fill="#ff3b64" d="
  M 483.72 333.03
  C 479.05 317.58 480.92 298.39 489.72 284.35
  Q 493.80 277.82 500.97 270.59
  Q 506.85 264.66 515.21 260.68
  C 532.67 252.36 553.19 251.62 570.66 259.55
  Q 576.96 262.41 582.96 265.96
  Q 586.95 268.33 590.15 271.98
  Q 594.02 276.39 597.24 280.93
  Q 603.57 289.86 606.18 301.33
  Q 608.12 309.86 607.96 315.92
  Q 607.85 319.95 607.17 324.98
  Q 606.52 329.78 605.03 334.19
  Q 602.50 341.72 599.73 346.27
  Q 597.23 350.38 592.42 356.09
  Q 587.94 361.39 583.29 364.38
  Q 572.67 371.20 564.31 374.08
  Q 550.86 378.71 533.71 376.22
  Q 524.41 374.87 514.48 369.43
  C 500.50 361.77 488.38 348.47 483.72 333.03
  Z
  M 544.3425 295.4498
  A 7.52 5.98 89.6 0 0 550.2699 287.8883
  A 7.52 5.98 89.6 0 0 544.2375 280.4102
  A 7.52 5.98 89.6 0 0 538.3101 287.9717
  A 7.52 5.98 89.6 0 0 544.3425 295.4498
  Z
  M 543.10 310.92
  C 545.61 313.51 552.80 320.67 556.29 318.39
  Q 556.90 318.00 556.50 317.39
  Q 551.64 310.03 544.81 305.05
  C 543.67 304.22 542.04 303.80 540.92 304.92
  Q 535.88 309.99 530.45 315.48
  A 1.65 1.65 0.0 0 0 531.51 318.29
  C 535.28 318.56 539.78 313.63 542.07 310.95
  Q 542.57 310.37 543.10 310.92
  Z
  M 549.3207 331.6305
  A 5.81 5.81 0.0 0 0 543.5209 325.8104
  L 543.0809 325.8096
  A 5.81 5.81 0.0 0 0 537.2607 331.6095
  L 537.2193 355.3695
  A 5.81 5.81 0.0 0 0 543.0191 361.1896
  L 543.4591 361.1904
  A 5.81 5.81 0.0 0 0 549.2793 355.3905
  L 549.3207 331.6305
  Z"
/>
<path fill="#da2d5a" d="
  M 733.89 264.70
  Q 737.56 265.29 746.39 265.58
  C 752.57 265.79 758.81 269.43 763.81 273.38
  C 775.14 282.34 781.12 294.90 781.33 309.42
  C 781.43 316.17 781.73 322.52 780.24 329.30
  Q 778.42 337.61 774.78 346.94
  Q 767.89 364.62 751.94 374.68
  C 743.16 380.22 731.73 381.21 722.53 376.05
  Q 725.56 369.30 725.45 363.77
  Q 724.76 329.39 724.86 295.00
  Q 724.88 286.82 720.40 280.09
  Q 717.65 275.95 714.85 271.55
  Q 725.79 270.19 733.89 264.70
  Z"
/>
<path fill="#ff3b64" d="
  M 700.41 264.91
  L 714.85 271.55
  Q 717.65 275.95 720.40 280.09
  Q 724.88 286.82 724.86 295.00
  Q 724.76 329.39 725.45 363.77
  Q 725.56 369.30 722.53 376.05
  L 719.28 373.89
  A 2.10 2.10 0.0 0 0 717.03 373.84
  Q 714.38 375.45 711.59 376.83
  C 702.10 381.51 692.60 379.64 683.82 374.39
  C 674.23 368.64 666.16 357.75 661.16 348.10
  C 655.41 337.00 654.23 324.84 654.36 312.17
  Q 654.44 304.40 655.05 300.19
  Q 656.51 290.23 662.80 282.40
  C 668.15 275.74 675.20 269.23 683.63 266.76
  C 688.40 265.36 694.86 265.57 700.41 264.91
  Z"
/>
<ellipse fill="#ffffff" cx="0.00" cy="0.00" transform="translate(544.29,287.93) rotate(89.6)" rx="7.52" ry="5.98"/>
<path fill="#ff3b64" d="
  M 981.46 509.47
  Q 965.24 472.91 936.98 441.41
  Q 931.16 434.92 919.23 423.44
  Q 913.15 417.59 902.55 408.78
  Q 895.12 402.62 887.64 397.37
  Q 877.70 390.38 872.12 387.12
  Q 861.53 380.91 848.50 374.14
  Q 839.64 369.53 834.35 367.48
  Q 825.94 364.22 818.11 355.05
  C 807.08 342.14 808.42 322.54 819.54 310.57
  C 831.43 297.77 849.75 295.46 865.85 301.82
  Q 890.37 311.51 912.78 325.79
  C 930.49 337.08 946.94 349.34 962.55 363.78
  C 975.34 375.60 987.70 387.58 998.85 400.58
  Q 1007.83 411.05 1019.43 426.60
  Q 1025.43 434.63 1030.74 443.20
  Q 1040.69 459.26 1048.03 473.86
  Q 1056.26 490.25 1062.92 506.72
  Q 1070.59 525.69 1077.73 552.30
  Q 1081.98 568.15 1086.50 597.39
  Q 1087.41 603.28 1087.86 609.50
  C 1088.28 615.18 1088.94 621.42 1088.76 627.43
  A 2.90 2.90 0.0 0 1 1085.86 630.25
  Q 1049.08 630.25 1012.62 630.25
  C 1007.32 630.25 1006.57 625.33 1006.66 621.19
  C 1007.20 594.07 1001.14 565.41 993.22 538.70
  C 990.24 528.65 985.63 518.86 981.46 509.47
  Z"
/>
<path fill="#da2d5a" d="
  M 542.07 310.95
  C 539.78 313.63 535.28 318.56 531.51 318.29
  A 1.65 1.65 0.0 0 1 530.45 315.48
  Q 535.88 309.99 540.92 304.92
  C 542.04 303.80 543.67 304.22 544.81 305.05
  Q 551.64 310.03 556.50 317.39
  Q 556.90 318.00 556.29 318.39
  C 552.80 320.67 545.61 313.51 543.10 310.92
  Q 542.57 310.37 542.07 310.95
  Z"
/>
<rect fill="#ffffff" x="-6.03" y="-17.69" transform="translate(543.27,343.50) rotate(0.1)" width="12.06" height="35.38" rx="5.81"/>
<path fill="#da2d5a" d="
  M 494.77 459.79
  Q 478.10 483.02 467.45 505.97
  Q 462.70 516.21 457.98 528.22
  Q 454.37 537.37 451.79 547.16
  Q 447.06 565.16 444.62 578.78
  Q 442.50 590.65 441.44 606.99
  Q 441.13 611.70 440.76 616.48
  Q 440.41 621.15 440.28 626.00
  Q 440.17 630.34 435.65 630.35
  Q 399.44 630.45 361.42 630.28
  A 3.49 3.49 0.0 0 1 357.97 626.36
  Q 358.80 619.79 359.12 612.75
  Q 359.41 606.19 360.53 598.85
  Q 361.87 589.95 363.10 581.69
  Q 366.26 560.42 371.79 542.62
  Q 376.90 526.17 383.89 507.00
  Q 385.23 503.35 386.59 500.47
  Q 398.69 474.97 403.60 465.85
  Q 408.09 457.49 414.27 447.45
  Q 419.78 438.51 425.25 430.75
  Q 436.24 415.16 444.43 405.81
  Q 451.59 397.64 459.38 389.08
  Q 461.85 386.37 464.61 383.81
  A 2.29 2.29 0.0 0 1 467.88 383.96
  C 484.93 403.03 508.19 411.97 533.88 413.69
  A 1.11 1.10 -64.7 0 1 534.56 415.60
  Q 528.28 421.57 522.69 427.14
  Q 514.66 435.15 506.98 444.23
  Q 500.17 452.27 494.77 459.79
  Z"
/>
<path fill="#07ad83" d="
  M 579.04 425.15
  A 1.15 1.15 0.0 0 0 579.56 424.19
  L 579.79 388.25
  A 2.72 2.72 0.0 0 1 582.51 385.55
  L 594.55 385.54
  A 1.77 1.77 0.0 0 1 596.32 387.30
  L 596.52 422.76
  Q 596.53 424.07 597.81 424.35
  C 606.24 426.20 613.84 428.59 620.56 434.06
  C 631.39 442.87 638.11 454.56 638.43 468.13
  Q 638.69 479.16 638.35 489.48
  A 1.33 1.33 0.0 0 1 636.52 490.67
  Q 630.29 488.13 624.55 487.55
  C 611.27 486.21 597.44 486.06 584.82 490.87
  Q 571.67 495.88 559.15 504.05
  Q 555.70 506.30 552.95 509.45
  Q 547.80 515.36 542.96 520.87
  Q 538.79 525.61 535.17 533.08
  A 0.86 0.85 -52.5 0 1 533.75 533.27
  Q 531.04 530.15 528.63 527.00
  C 524.41 521.51 518.72 520.78 512.27 521.00
  Q 511.68 521.02 511.24 520.65
  Q 509.83 519.48 511.03 517.89
  Q 519.04 507.34 523.49 503.99
  Q 530.70 498.56 538.18 492.73
  A 2.89 2.88 -19.5 0 0 539.30 490.39
  Q 539.06 477.81 539.31 467.03
  C 539.54 456.87 544.21 448.31 550.16 440.45
  Q 552.95 436.76 556.33 434.33
  C 562.55 429.87 569.57 426.44 577.44 425.71
  Q 578.30 425.63 579.04 425.15
  Z"
/>
<path fill="#73cb5e" d="
  M 684.91 424.99
  Q 685.20 425.15 684.92 425.32
  C 678.76 429.12 673.58 432.09 670.33 438.99
  A 0.98 0.98 0.0 0 1 668.63 439.13
  C 665.11 434.05 660.45 429.89 655.87 425.40
  Q 655.35 424.90 655.93 424.47
  C 661.11 420.64 665.67 416.81 669.08 411.54
  A 0.99 0.99 0.0 0 1 670.80 411.64
  C 672.40 414.91 674.51 418.21 677.52 420.33
  Q 681.23 422.94 684.91 424.99
  Z"
/>
<path fill="#35bd6e" d="
  M 867.58 483.02
  C 872.18 472.85 872.55 460.77 870.22 449.62
  Q 868.49 441.37 863.13 431.40
  Q 858.39 422.56 852.90 414.45
  A 0.62 0.62 0.0 0 1 853.45 413.49
  Q 884.24 415.29 901.61 440.06
  Q 909.05 450.69 909.82 462.40
  Q 910.40 471.37 909.73 479.99
  C 908.73 492.84 901.60 502.54 892.65 511.30
  C 887.66 516.18 882.14 518.86 875.94 521.77
  Q 874.39 522.49 872.87 521.94
  Q 861.79 517.95 853.05 517.64
  Q 845.45 517.37 837.62 517.52
  Q 837.05 517.53 836.55 517.27
  A 0.40 0.40 0.0 0 1 836.47 516.61
  C 843.60 510.52 852.06 504.67 857.97 498.11
  Q 863.56 491.90 867.58 483.02
  Z"
/>
<path fill="#19293a" d="
  M 728.31 422.28
  C 729.23 419.73 732.37 417.00 734.51 415.29
  Q 735.65 414.37 736.98 414.98
  C 740.22 416.47 743.85 417.35 746.74 419.43
  C 753.53 424.31 755.41 434.07 756.03 442.38
  Q 756.36 446.88 752.33 447.35
  Q 748.08 447.85 743.56 447.05
  A 0.84 0.84 0.0 0 1 742.87 446.20
  Q 742.94 442.77 742.67 439.47
  C 742.07 431.96 737.06 428.80 730.40 426.50
  C 728.61 425.88 727.65 424.11 728.31 422.28
  Z"
/>
<path fill="#07ad83" d="
  M 762.59 423.26
  C 768.33 416.85 778.38 414.64 786.72 414.74
  Q 789.47 414.77 789.86 417.33
  C 792.13 432.05 779.05 438.28 766.41 437.28
  C 758.34 436.65 758.32 428.04 762.59 423.26
  Z"
/>
<path fill="#ff3b64" d="
  M 746.08 460.78
  Q 745.94 502.04 745.32 543.75
  Q 745.14 555.75 745.41 562.00
  Q 746.28 582.87 746.82 603.90
  Q 722.81 604.06 699.50 603.99
  C 681.68 603.93 666.99 613.96 657.32 628.23
  Q 654.81 631.93 652.46 635.09
  C 648.90 639.90 643.44 642.36 637.40 643.17
  Q 624.09 644.95 616.49 636.18
  Q 616.84 631.88 617.16 628.23
  C 618.13 617.18 622.14 607.24 628.94 597.99
  Q 638.54 584.94 650.80 575.53
  Q 659.02 569.23 668.91 567.89
  C 676.74 566.84 685.67 566.96 693.49 567.78
  C 703.50 568.82 712.20 573.42 720.63 579.11
  A 0.58 0.58 0.0 0 0 721.51 578.80
  Q 721.70 578.13 721.37 577.50
  Q 712.59 561.09 704.50 546.10
  C 699.57 536.98 692.07 529.54 683.49 522.87
  Q 683.01 522.49 682.86 521.89
  C 679.32 507.60 680.45 492.72 683.61 478.61
  Q 685.02 472.30 689.69 466.70
  C 695.61 459.59 703.56 451.87 712.58 450.39
  Q 717.87 449.52 724.26 449.49
  Q 733.24 449.44 739.92 455.35
  Q 742.81 457.91 746.08 460.78
  Z
  M 638.42 620.81
  Q 640.51 620.50 641.56 618.28
  C 643.50 614.19 645.15 609.84 647.78 606.25
  Q 652.80 599.40 661.19 593.82
  Q 677.03 583.27 696.92 586.68
  C 699.28 587.09 700.60 585.62 700.10 583.27
  Q 699.60 580.87 697.21 580.35
  C 674.54 575.40 653.85 587.04 640.12 605.31
  Q 635.98 610.80 635.50 618.18
  Q 635.29 621.27 638.42 620.81
  Z"
/>
<path fill="#da2d5a" d="
  M 757.55 603.35
  L 746.82 603.90
  Q 746.28 582.87 745.41 562.00
  Q 745.14 555.75 745.32 543.75
  Q 745.94 502.04 746.08 460.78
  Q 751.22 458.08 755.72 454.54
  Q 758.77 452.13 760.87 451.31
  Q 763.66 450.22 766.48 449.97
  Q 773.11 449.40 781.47 449.81
  C 789.61 450.21 796.13 453.53 801.93 458.97
  Q 817.36 473.45 819.18 495.25
  Q 819.64 500.77 819.17 517.15
  C 819.08 520.35 819.51 522.26 816.03 523.91
  Q 800.18 531.42 791.73 538.43
  Q 788.21 541.35 781.98 548.02
  Q 776.74 553.63 773.62 558.49
  C 764.80 572.26 759.12 586.90 757.55 603.35
  Z"
/>
<path fill="#fbb53c" d="
  M 611.68 603.67
  L 553.62 603.16
  Q 550.54 598.04 547.94 593.78
  C 544.45 588.05 543.23 579.89 542.05 572.71
  Q 541.44 568.96 541.96 565.16
  Q 542.72 559.64 543.65 554.80
  C 545.75 543.93 552.04 532.08 560.02 523.91
  C 572.09 511.57 588.36 502.28 605.55 501.86
  Q 612.89 501.68 619.84 501.89
  C 633.06 502.29 645.80 508.68 656.39 517.17
  C 665.20 524.23 671.70 533.01 676.00 543.58
  Q 678.96 550.83 681.89 557.36
  A 0.50 0.50 0.0 0 1 681.54 558.05
  Q 665.27 561.30 648.12 569.05
  Q 642.96 571.38 638.07 575.19
  C 632.49 579.54 626.96 583.80 622.33 588.84
  Q 618.56 592.94 611.68 603.67
  Z"
/>
<path fill="#73cb5e" d="
  M 901.25 603.28
  Q 897.35 603.81 894.50 603.87
  Q 878.60 604.26 856.47 603.88
  Q 859.33 593.48 864.45 584.62
  Q 866.73 580.68 868.95 576.82
  C 871.99 571.54 873.47 567.55 873.29 561.89
  A 0.40 0.39 71.5 0 0 872.67 561.58
  Q 850.48 576.83 843.90 603.61
  Q 833.01 603.22 821.87 604.32
  Q 821.37 604.37 820.98 604.68
  L 820.54 605.01
  Q 819.87 604.68 819.00 604.66
  Q 795.92 604.16 772.84 603.65
  Q 772.46 603.64 772.21 603.45
  Q 771.98 603.27 771.71 602.98
  Q 772.72 593.49 773.57 591.00
  Q 784.88 557.96 814.96 540.71
  Q 834.67 529.40 858.33 533.11
  C 862.83 533.82 867.70 536.24 871.88 538.20
  Q 872.41 538.46 872.96 538.23
  Q 886.82 532.44 900.95 532.11
  C 905.72 532.00 911.99 533.20 915.40 536.67
  C 917.09 538.39 916.82 540.68 917.05 542.87
  A 1.69 1.69 0.0 0 0 918.73 544.38
  Q 924.79 544.36 930.67 544.57
  Q 936.70 544.79 943.56 547.52
  Q 951.15 550.54 956.78 554.38
  A 1.62 1.62 0.0 0 1 956.38 557.25
  Q 932.84 565.10 915.27 582.44
  Q 912.67 585.00 910.42 588.13
  Q 905.39 595.10 901.25 603.28
  Z"
/>
<path fill="#ffffff" d="
  M 856.47 603.88
  L 843.90 603.61
  Q 850.48 576.83 872.67 561.58
  A 0.40 0.39 71.5 0 1 873.29 561.89
  C 873.47 567.55 871.99 571.54 868.95 576.82
  Q 866.73 580.68 864.45 584.62
  Q 859.33 593.48 856.47 603.88
  Z"
/>
<path fill="#da2d5a" d="
  M 638.42 620.81
  Q 635.29 621.27 635.50 618.18
  Q 635.98 610.80 640.12 605.31
  C 653.85 587.04 674.54 575.40 697.21 580.35
  Q 699.60 580.87 700.10 583.27
  C 700.60 585.62 699.28 587.09 696.92 586.68
  Q 677.03 583.27 661.19 593.82
  Q 652.80 599.40 647.78 606.25
  C 645.15 609.84 643.50 614.19 641.56 618.28
  Q 640.51 620.50 638.42 620.81
  Z"
/>
<path fill="#07ad83" d="
  M 553.62 603.16
  L 611.68 603.67
  Q 607.85 611.03 608.09 620.24
  Q 608.34 629.83 616.49 636.18
  Q 624.09 644.95 637.40 643.17
  C 643.44 642.36 648.90 639.90 652.46 635.09
  Q 654.81 631.93 657.32 628.23
  C 666.99 613.96 681.68 603.93 699.50 603.99
  Q 722.81 604.06 746.82 603.90
  L 757.55 603.35
  Q 764.90 603.80 770.50 603.65
  Q 771.20 603.63 771.71 602.98
  Q 771.98 603.27 772.21 603.45
  Q 772.46 603.64 772.84 603.65
  Q 795.92 604.16 819.00 604.66
  Q 819.87 604.68 820.54 605.01
  Q 821.84 606.47 822.58 608.25
  Q 822.78 608.71 822.70 609.20
  Q 822.38 611.33 822.92 613.14
  C 825.02 620.18 827.66 627.60 828.70 635.03
  Q 829.04 637.43 829.80 639.96
  Q 832.07 647.49 832.65 655.87
  Q 832.75 657.37 833.69 658.52
  C 834.64 659.69 836.14 659.61 836.86 661.05
  A 1.46 1.41 -55.8 0 1 837.00 661.86
  L 836.69 664.17
  A 0.96 0.96 0.0 0 0 836.95 664.98
  Q 838.61 666.73 841.25 666.81
  C 873.44 667.73 905.80 667.36 938.00 666.79
  Q 939.34 666.77 942.09 667.87
  Q 939.60 675.70 939.00 679.00
  C 936.66 691.91 933.80 704.62 931.51 717.63
  Q 930.12 725.49 928.71 732.40
  Q 927.44 738.61 926.42 745.50
  C 924.63 757.51 921.64 769.19 919.35 780.79
  Q 913.59 810.01 909.31 827.84
  Q 905.02 845.74 890.18 863.28
  Q 877.18 878.66 857.08 886.62
  Q 847.75 890.32 842.06 891.16
  C 832.40 892.59 822.83 893.13 813.02 893.13
  Q 718.61 893.10 627.97 893.08
  Q 621.53 893.07 613.94 892.35
  Q 606.17 891.60 601.07 890.25
  Q 592.29 887.91 582.75 882.66
  Q 574.12 877.92 567.91 872.91
  Q 558.98 865.72 550.83 854.03
  Q 540.35 839.00 536.77 822.39
  C 534.80 813.28 533.47 803.56 531.28 794.30
  Q 522.25 756.26 515.77 719.50
  Q 514.54 712.48 512.59 705.03
  C 511.68 701.59 511.76 698.01 510.81 694.38
  Q 508.33 684.92 506.48 675.28
  Q 519.86 675.79 527.75 675.01
  Q 563.79 671.49 597.83 668.65
  Q 602.16 668.29 597.86 667.63
  Q 597.14 667.51 595.00 667.51
  Q 549.38 667.32 503.75 667.84
  Q 497.56 666.92 492.19 662.80
  C 482.92 655.70 477.72 646.31 479.38 634.45
  Q 481.35 620.42 493.68 611.41
  Q 504.15 603.78 516.66 603.71
  Q 532.73 603.63 548.21 603.65
  Q 549.62 603.65 551.03 603.46
  Q 552.33 603.28 553.62 603.16
  Z
  M 663.10 674.81
  Q 688.95 674.92 720.54 671.94
  Q 735.06 670.56 748.99 669.49
  Q 759.14 668.71 780.24 669.26
  A 1.18 1.18 0.0 0 0 781.44 668.29
  L 781.50 667.99
  A 0.54 0.54 0.0 0 0 780.99 667.36
  C 769.32 667.05 755.41 667.54 745.99 667.53
  Q 701.77 667.47 657.50 667.14
  Q 653.96 667.12 645.84 667.89
  Q 642.67 668.19 644.29 670.93
  L 644.65 671.54
  Q 646.40 674.51 649.85 674.60
  Q 656.24 674.78 663.10 674.81
  Z
  M 616.97 831.25
  Q 622.21 842.47 633.76 841.19
  Q 640.37 840.46 644.60 835.25
  Q 648.74 830.14 648.73 822.68
  Q 648.70 789.22 648.81 736.28
  C 648.82 732.06 649.52 725.80 648.65 722.41
  Q 647.45 717.74 643.08 713.88
  C 638.20 709.56 632.97 706.98 626.46 710.04
  Q 617.55 714.22 616.11 722.77
  C 615.15 728.48 615.76 735.18 615.76 741.44
  Q 615.72 782.70 615.81 826.03
  Q 615.82 828.77 616.97 831.25
  Z
  M 818.09 840.86
  Q 827.32 838.84 830.96 830.46
  Q 832.37 827.21 832.33 819.64
  Q 832.10 776.07 832.31 730.58
  Q 832.34 724.44 831.20 720.89
  C 828.81 713.46 821.09 707.70 813.07 709.05
  C 804.08 710.57 798.28 718.61 798.19 727.49
  Q 797.78 768.62 798.15 822.37
  C 798.20 829.33 801.45 834.51 806.97 838.83
  C 810.20 841.36 814.31 841.69 818.09 840.86
  Z
  M 740.6659 726.2200
  A 16.32 16.32 0.0 0 0 724.3744 709.8715
  L 722.7744 709.8687
  A 16.32 16.32 0.0 0 0 706.4259 726.1602
  L 706.2541 824.5800
  A 16.32 16.32 0.0 0 0 722.5456 840.9285
  L 724.1456 840.9313
  A 16.32 16.32 0.0 0 0 740.4941 824.6398
  L 740.6659 726.2200
  Z"
/>
<path fill="#35bd6e" d="
  M 901.25 603.28
  Q 909.91 603.43 918.09 603.55
  Q 934.59 603.80 934.92 603.84
  Q 953.69 605.85 964.11 623.11
  C 967.82 629.25 968.58 636.51 967.34 643.29
  Q 965.60 652.83 959.62 658.36
  Q 956.52 661.22 955.66 662.16
  Q 954.62 663.31 951.15 664.73
  Q 946.85 666.48 942.09 667.87
  Q 939.34 666.77 938.00 666.79
  C 905.80 667.36 873.44 667.73 841.25 666.81
  Q 838.61 666.73 836.95 664.98
  A 0.96 0.96 0.0 0 1 836.69 664.17
  L 837.00 661.86
  A 1.46 1.41 -55.8 0 0 836.86 661.05
  C 836.14 659.61 834.64 659.69 833.69 658.52
  Q 832.75 657.37 832.65 655.87
  Q 832.07 647.49 829.80 639.96
  Q 829.04 637.43 828.70 635.03
  C 827.66 627.60 825.02 620.18 822.92 613.14
  Q 822.38 611.33 822.70 609.20
  Q 822.78 608.71 822.58 608.25
  Q 821.84 606.47 820.54 605.01
  L 820.98 604.68
  Q 821.37 604.37 821.87 604.32
  Q 833.01 603.22 843.90 603.61
  L 856.47 603.88
  Q 878.60 604.26 894.50 603.87
  Q 897.35 603.81 901.25 603.28
  Z"
/>
<path fill="#07ad83" d="
  M 722.69 952.08
  Q 721.53 957.69 721.55 960.50
  Q 721.61 972.92 721.75 985.33
  Q 721.77 986.98 721.89 988.65
  C 722.09 991.42 721.71 994.21 721.72 997.00
  Q 721.75 1003.68 721.64 1016.25
  Q 721.60 1021.30 724.06 1026.16
  Q 716.36 1026.57 703.50 1025.31
  C 693.25 1024.30 682.80 1023.74 672.56 1021.89
  C 667.22 1020.93 661.72 1020.27 656.52 1019.19
  C 648.34 1017.48 639.95 1015.75 632.00 1013.34
  C 626.58 1011.70 620.99 1010.65 615.52 1008.71
  Q 599.66 1003.07 581.77 995.58
  Q 568.90 990.19 561.04 985.80
  Q 553.96 981.85 546.25 977.76
  Q 538.04 973.41 531.01 968.55
  Q 522.79 962.86 514.26 957.05
  Q 509.13 953.55 503.77 949.11
  C 500.34 946.27 496.74 943.71 493.10 941.14
  Q 491.08 939.71 489.13 937.82
  C 478.36 927.45 466.93 917.28 456.45 906.23
  Q 451.64 901.15 446.97 894.92
  C 443.12 889.77 438.35 885.34 434.62 880.01
  Q 429.41 872.57 421.85 862.70
  C 419.51 859.63 417.29 856.34 415.36 852.97
  Q 410.82 845.04 406.18 837.80
  Q 403.35 833.37 401.04 828.87
  Q 393.22 813.67 386.25 798.12
  Q 384.14 793.41 382.43 788.54
  Q 377.76 775.25 372.60 760.94
  C 368.08 748.39 364.50 734.78 362.36 722.06
  C 359.84 707.06 361.73 689.22 372.71 678.33
  Q 376.72 674.35 382.71 671.21
  C 396.17 664.14 410.71 664.85 422.74 674.70
  Q 428.58 679.49 434.30 685.32
  C 438.95 690.06 444.32 693.83 448.73 698.85
  Q 451.42 701.92 454.38 704.87
  Q 463.09 713.56 472.20 721.74
  Q 474.98 724.24 477.44 726.52
  Q 484.13 732.69 490.40 739.30
  Q 491.34 740.29 491.94 741.37
  C 493.99 745.09 491.11 748.24 487.32 748.27
  Q 471.47 748.37 454.73 748.61
  A 2.14 2.14 0.0 0 0 452.64 750.51
  Q 452.46 752.21 452.97 753.79
  Q 458.28 770.23 469.15 795.02
  Q 470.27 797.58 471.62 799.76
  Q 476.54 807.74 481.27 816.30
  Q 484.96 822.99 489.66 829.18
  Q 499.38 841.99 507.97 852.64
  Q 513.74 859.80 520.06 866.05
  C 525.95 871.87 531.88 878.13 538.31 883.38
  Q 557.35 898.96 569.38 907.16
  Q 577.36 912.60 590.76 919.72
  Q 598.89 924.05 608.89 928.16
  Q 627.47 935.80 644.57 941.64
  C 649.65 943.38 655.37 943.62 660.52 944.97
  C 672.83 948.20 687.17 950.11 701.43 951.56
  C 708.45 952.28 715.59 951.97 722.69 952.08
  Z"
/>
<path fill="#73cb5e" d="
  M 1076.01 750.87
  Q 1071.60 749.22 1068.46 748.58
  C 1055.27 745.91 1039.39 743.41 1026.17 740.82
  Q 1012.85 738.21 999.49 735.47
  Q 1003.77 716.17 1007.29 696.74
  Q 1007.95 693.10 1011.99 685.79
  C 1017.65 675.56 1028.69 667.68 1040.67 666.84
  C 1052.32 666.03 1064.20 668.41 1072.25 677.36
  C 1083.62 689.99 1086.21 704.32 1083.27 720.51
  Q 1081.50 730.25 1076.01 750.87
  Z"
/>
<path fill="#19293a" d="
  M 663.10 674.81
  Q 656.24 674.78 649.85 674.60
  Q 646.40 674.51 644.65 671.54
  L 644.29 670.93
  Q 642.67 668.19 645.84 667.89
  Q 653.96 667.12 657.50 667.14
  Q 701.77 667.47 745.99 667.53
  C 755.41 667.54 769.32 667.05 780.99 667.36
  A 0.54 0.54 0.0 0 1 781.50 667.99
  L 781.44 668.29
  A 1.18 1.18 0.0 0 1 780.24 669.26
  Q 759.14 668.71 748.99 669.49
  Q 735.06 670.56 720.54 671.94
  Q 688.95 674.92 663.10 674.81
  Z"
/>
<path fill="#19293a" d="
  M 506.48 675.28
  Q 506.37 671.00 503.75 667.84
  Q 549.38 667.32 595.00 667.51
  Q 597.14 667.51 597.86 667.63
  Q 602.16 668.29 597.83 668.65
  Q 563.79 671.49 527.75 675.01
  Q 519.86 675.79 506.48 675.28
  Z"
/>
<path fill="#fbb53c" d="
  M 999.49 735.47
  Q 1012.85 738.21 1026.17 740.82
  C 1039.39 743.41 1055.27 745.91 1068.46 748.58
  Q 1071.60 749.22 1076.01 750.87
  Q 1069.75 773.73 1061.17 795.60
  Q 1058.49 802.41 1054.35 810.68
  Q 1050.60 818.19 1046.97 825.52
  L 973.73 802.97
  Q 990.27 769.90 999.49 735.47
  Z"
/>
<path fill="#73cb5e" d="
  M 973.73 802.97
  L 1046.97 825.52
  Q 1044.00 832.06 1040.58 837.80
  Q 1026.39 861.63 1008.11 885.35
  C 1004.21 890.41 1000.19 894.61 996.37 899.21
  C 993.68 902.45 991.08 905.69 988.08 908.65
  C 980.96 915.68 974.41 922.75 966.94 929.14
  Q 961.31 933.97 956.00 939.01
  C 952.77 942.08 949.04 944.53 945.55 947.35
  Q 930.40 959.63 914.19 970.45
  Q 908.08 974.52 900.34 978.92
  Q 893.31 982.90 886.16 986.87
  Q 881.06 983.97 877.80 980.48
  Q 856.86 958.02 834.90 930.43
  Q 867.64 916.16 897.66 892.87
  Q 907.10 885.54 912.19 880.42
  Q 913.93 878.67 920.42 873.42
  Q 923.16 871.20 927.51 865.98
  Q 931.28 861.47 934.22 858.25
  Q 943.32 848.27 950.80 838.03
  Q 963.10 821.20 973.73 802.97
  Z"
/>
<path fill="#35bd6e" d="
  M 834.90 930.43
  Q 856.86 958.02 877.80 980.48
  Q 881.06 983.97 886.16 986.87
  Q 876.59 991.48 861.06 997.57
  Q 845.36 1003.73 834.81 1007.73
  C 827.85 1010.36 819.84 1011.97 812.34 1014.16
  Q 807.85 1015.47 802.20 1016.56
  Q 796.91 1017.58 791.78 1018.71
  Q 777.37 1021.85 760.23 1023.63
  Q 754.49 1024.22 750.15 1024.40
  Q 745.87 1024.57 741.32 1025.29
  Q 732.69 1026.64 724.06 1026.16
  Q 721.60 1021.30 721.64 1016.25
  Q 721.75 1003.68 721.72 997.00
  C 721.71 994.21 722.09 991.42 721.89 988.65
  Q 721.77 986.98 721.75 985.33
  Q 721.61 972.92 721.55 960.50
  Q 721.53 957.69 722.69 952.08
  Q 735.85 952.62 739.50 952.27
  C 748.58 951.39 758.02 950.62 767.10 949.03
  Q 791.82 944.69 801.26 942.22
  Q 813.69 938.97 834.90 930.43
  Z"
/>
<ellipse fill="#ffffff" cx="0.00" cy="0.00" transform="translate(1037.58,1062.97) rotate(-4.5)" rx="22.15" ry="21.54"/>
<path fill="#ffffff" d="
  M 957.41 1055.50
  C 960.98 1048.45 963.81 1043.82 972.38 1042.16
  C 977.31 1041.20 983.33 1040.98 987.82 1043.39
  Q 996.71 1048.15 998.85 1056.75
  C 1000.46 1063.22 999.55 1071.17 995.41 1076.70
  C 988.45 1086.01 973.42 1086.73 964.29 1080.24
  C 960.29 1077.39 958.32 1072.68 956.61 1068.20
  Q 954.19 1061.86 957.41 1055.50
  Z"
/>
<path fill="#ffffff" d="
  M 685.30 1163.70
  Q 685.18 1164.88 685.69 1166.00
  Q 690.81 1177.31 703.71 1179.37
  Q 708.71 1180.17 715.85 1179.68
  C 724.54 1179.09 731.62 1175.50 737.81 1169.54
  Q 740.64 1166.82 743.80 1168.95
  Q 752.22 1174.64 759.35 1181.26
  Q 761.26 1183.02 763.00 1185.59
  Q 763.28 1186.00 763.07 1186.45
  Q 761.00 1190.86 757.80 1193.95
  Q 746.81 1204.55 729.58 1210.37
  C 724.95 1211.94 719.48 1212.32 714.53 1213.08
  C 709.40 1213.88 704.52 1213.27 699.47 1212.50
  Q 679.15 1209.39 663.87 1195.23
  Q 660.17 1191.81 657.60 1187.86
  Q 647.15 1171.81 644.83 1154.03
  Q 643.49 1143.70 646.12 1134.42
  Q 648.34 1126.61 651.91 1118.22
  Q 654.59 1111.91 659.12 1106.73
  C 669.42 1094.96 683.99 1086.36 699.59 1085.43
  C 712.28 1084.68 726.54 1085.32 737.44 1091.50
  Q 742.68 1094.47 748.25 1099.05
  C 756.46 1105.80 761.52 1114.79 765.56 1124.90
  Q 768.25 1131.62 768.39 1136.64
  Q 768.64 1145.97 768.44 1158.69
  Q 768.42 1160.09 768.21 1161.42
  A 1.26 1.26 0.0 0 1 766.98 1162.49
  L 686.64 1162.50
  A 1.35 1.34 3.1 0 0 685.30 1163.70
  Z
  M 716.72 1118.81
  Q 711.05 1117.57 704.10 1117.96
  Q 695.07 1118.45 688.79 1125.44
  Q 686.15 1128.38 684.81 1131.60
  A 1.78 1.78 0.0 0 0 686.47 1134.06
  L 730.00 1133.85
  Q 731.61 1133.84 730.91 1132.40
  C 728.16 1126.71 722.92 1120.16 716.72 1118.81
  Z"
/>
<path fill="#ffffff" d="
  M 858.06 1192.27
  C 858.64 1189.95 859.88 1187.27 861.31 1185.29
  Q 868.49 1175.33 874.04 1167.15
  A 0.97 0.97 0.0 0 1 875.47 1166.96
  Q 879.95 1170.81 884.64 1173.80
  C 892.68 1178.91 899.31 1180.54 908.84 1179.56
  Q 913.75 1179.05 913.46 1174.22
  C 913.21 1169.93 908.40 1166.81 904.70 1165.71
  C 888.83 1161.00 867.85 1152.64 863.17 1134.42
  Q 861.31 1127.17 861.81 1121.67
  C 862.48 1114.35 863.53 1107.82 868.45 1101.72
  Q 879.10 1088.51 895.53 1085.95
  Q 898.37 1085.51 904.00 1085.43
  C 907.84 1085.37 911.53 1085.13 915.34 1085.59
  Q 932.27 1087.66 946.50 1097.28
  A 1.54 1.54 0.0 0 1 946.95 1099.37
  Q 939.50 1111.34 932.43 1123.13
  Q 931.53 1124.63 930.51 1125.88
  A 1.35 1.34 35.9 0 1 928.73 1126.16
  Q 919.76 1120.38 909.65 1117.53
  Q 902.42 1115.49 897.88 1121.08
  C 894.79 1124.89 900.19 1128.52 903.28 1129.41
  Q 908.19 1130.82 913.14 1132.32
  Q 926.57 1136.39 937.70 1144.36
  Q 941.48 1147.08 943.72 1150.78
  Q 948.82 1159.21 949.52 1168.54
  C 949.88 1173.49 950.01 1179.62 948.63 1184.37
  Q 943.56 1201.79 927.02 1209.36
  Q 922.31 1211.53 914.46 1212.01
  C 903.34 1212.69 890.92 1213.12 880.66 1208.74
  Q 869.58 1204.02 860.32 1197.17
  C 858.82 1196.06 857.58 1194.21 858.06 1192.27
  Z"
/>
<path fill="#ffffff" d="
  M 817.79 1096.46
  A 1.39 1.38 68.6 0 0 820.05 1097.45
  Q 835.08 1085.14 854.19 1088.15
  A 1.50 1.50 0.0 0 1 855.46 1089.63
  Q 855.52 1105.12 855.49 1120.71
  Q 855.48 1123.02 853.12 1122.80
  C 842.99 1121.89 829.30 1125.66 823.94 1135.26
  Q 819.29 1143.60 819.26 1152.56
  Q 819.18 1180.16 819.20 1203.80
  Q 819.20 1210.02 813.04 1210.02
  Q 798.51 1210.01 783.87 1210.01
  C 782.34 1210.01 781.07 1209.43 780.51 1207.92
  Q 779.01 1203.87 779.01 1199.84
  Q 778.97 1147.63 779.00 1090.97
  A 2.02 2.02 0.0 0 1 781.02 1088.95
  L 816.20 1089.05
  A 1.22 1.22 0.0 0 1 817.42 1090.20
  L 817.79 1096.46
  Z"
/>
<path fill="#ffffff" d="
  M 444.77 1213.15
  C 428.23 1211.51 413.40 1202.97 403.27 1189.83
  Q 395.86 1180.22 393.43 1170.03
  Q 391.86 1163.42 391.92 1150.68
  Q 392.09 1116.69 391.98 1092.25
  Q 391.96 1088.93 395.28 1088.94
  L 428.99 1089.09
  A 1.18 1.18 0.0 0 1 430.17 1090.25
  Q 430.59 1121.48 430.39 1154.10
  C 430.35 1161.10 435.03 1166.62 440.12 1170.80
  C 449.06 1178.14 460.39 1177.45 470.14 1171.37
  Q 476.94 1167.13 479.21 1159.89
  C 481.72 1151.85 481.41 1144.52 481.31 1136.29
  Q 481.04 1114.43 481.41 1093.89
  Q 481.43 1092.33 481.80 1090.54
  A 1.87 1.86 5.7 0 1 483.62 1089.06
  L 517.22 1088.95
  A 1.52 1.51 89.6 0 1 518.74 1090.46
  Q 518.80 1121.05 518.72 1154.07
  Q 518.68 1168.41 512.89 1180.12
  C 504.87 1196.35 488.88 1207.64 471.45 1211.90
  C 462.95 1213.98 453.55 1214.02 444.77 1213.15
  Z"
/>
<path fill="#ffffff" d="
  M 585.34 1181.22
  A 1.01 1.01 0.0 0 0 583.63 1181.16
  Q 574.48 1194.94 565.84 1208.05
  C 564.70 1209.79 562.65 1210.11 560.73 1210.09
  Q 544.34 1209.92 527.42 1210.05
  Q 525.58 1210.06 524.00 1209.50
  A 1.88 1.88 0.0 0 1 523.02 1206.77
  Q 527.19 1199.82 531.57 1193.81
  C 534.13 1190.29 536.24 1186.31 538.67 1182.68
  Q 548.86 1167.49 559.06 1151.71
  C 561.22 1148.38 562.30 1146.67 559.79 1142.98
  Q 543.36 1118.72 527.99 1094.35
  Q 527.36 1093.36 526.87 1092.25
  Q 526.66 1091.77 526.89 1091.30
  Q 527.80 1089.42 530.00 1089.37
  Q 554.12 1088.76 566.25 1089.02
  Q 568.63 1089.07 570.17 1091.60
  Q 577.23 1103.16 584.58 1115.20
  A 0.94 0.94 0.0 0 0 586.18 1115.22
  L 602.02 1090.29
  A 2.92 2.92 0.0 0 1 604.48 1088.94
  L 643.75 1089.08
  A 0.80 0.80 0.0 0 1 644.42 1090.32
  L 607.66 1146.38
  Q 607.41 1146.77 607.53 1147.21
  Q 608.20 1149.67 609.73 1152.24
  Q 615.92 1162.65 621.90 1171.94
  Q 634.09 1190.91 644.16 1208.07
  Q 644.40 1208.48 644.39 1209.01
  A 0.99 0.99 0.0 0 1 643.40 1209.99
  Q 624.06 1210.06 605.64 1209.97
  Q 603.64 1209.96 602.52 1208.35
  Q 593.11 1194.73 585.34 1181.22
  Z"
/>
<rect fill="#ffffff" x="959.75" y="1088.97" width="38.50" height="121.02" rx="3.63"/>
<rect fill="#ffffff" x="1017.68" y="1089.01" width="39.58" height="120.94" rx="2.79"/>
</svg>
