<?xml version="1.0" encoding="UTF-8" standalone="no"?>
<!DOCTYPE svg PUBLIC "-//W3C//DTD SVG 1.1//EN" "http://www.w3.org/Graphics/SVG/1.1/DTD/svg11.dtd">
<svg xmlns="http://www.w3.org/2000/svg" version="1.1" viewBox="0.00 0.00 1125.00 1125.00">
<g stroke-width="2.00" fill="none" stroke-linecap="butt">
<path stroke="#806450" vector-effect="non-scaling-stroke" d="
  M 69.40 900.71
  Q 69.66 901.48 70.60 901.60
  Q 81.27 903.03 84.67 912.48
  C 85.57 914.98 85.75 918.77 85.75 921.54
  Q 85.73 1003.31 85.75 1085.91
  Q 85.75 1086.96 86.80 1086.96
  L 545.27 1086.95
  A 0.75 0.74 0.0 0 0 546.02 1086.21
  L 546.01 639.45"
/>
<path stroke="#7c5841" vector-effect="non-scaling-stroke" d="
  M 546.01 639.45
  L 546.11 559.70
  Q 546.11 556.96 544.87 559.40
  Q 519.68 608.72 494.60 657.93
  Q 490.88 665.22 488.04 669.01
  C 481.08 678.33 470.25 683.56 458.50 683.55
  Q 275.55 683.46 86.29 683.51
  Q 85.78 683.51 85.78 684.02
  L 85.76 733.73"
/>
<path stroke="#806450" vector-effect="non-scaling-stroke" d="
  M 85.76 733.73
  Q 85.69 785.17 85.80 836.04
  C 85.81 839.71 85.94 843.64 84.98 846.76
  Q 82.48 854.92 73.66 857.31
  Q 71.30 857.95 69.32 858.70"
/>
<path stroke="#667a4f" vector-effect="non-scaling-stroke" d="
  M 420.38 38.70
  A 0.62 0.62 0.0 0 0 419.76 38.08
  L 256.58 38.08
  A 0.62 0.62 0.0 0 0 255.96 38.70
  L 255.96 85.12
  A 0.62 0.62 0.0 0 0 256.58 85.74
  L 419.76 85.74
  A 0.62 0.62 0.0 0 0 420.38 85.12
  L 420.38 38.70"
/>
<path stroke="#667a4f" vector-effect="non-scaling-stroke" d="
  M 871.41 120.58
  C 867.67 111.48 863.34 103.01 857.11 95.29
  Q 852.12 89.10 843.66 81.50
  Q 831.67 70.71 819.81 60.01
  Q 819.19 59.45 818.92 60.25
  Q 812.92 78.28 807.76 94.08
  C 800.91 115.01 803.56 139.17 812.70 158.61
  A 1.44 1.43 -17.8 0 0 814.27 159.41
  Q 830.32 156.44 847.31 157.23
  Q 853.18 157.51 859.64 158.01
  A 0.87 0.86 -82.1 0 0 860.55 157.31
  Q 863.61 141.34 871.27 126.22
  Q 872.63 123.55 871.41 120.58"
/>
<path stroke="#667a4f" vector-effect="non-scaling-stroke" d="
  M 945.74 95.72
  C 918.81 108.86 899.28 134.72 892.62 163.81
  A 2.09 2.09 0.0 0 0 893.94 166.23
  Q 910.87 172.41 925.37 181.90
  Q 930.73 185.41 937.49 190.20
  A 2.09 2.08 44.8 0 0 939.92 190.20
  Q 943.01 187.98 945.93 185.34
  C 966.08 167.10 980.62 141.51 980.20 114.33
  Q 979.98 99.62 979.78 84.69
  Q 979.74 82.20 979.32 79.81
  A 0.48 0.48 0.0 0 0 978.64 79.47
  Q 962.17 87.71 945.74 95.72"
/>
<path stroke="#4f637e" vector-effect="non-scaling-stroke" d="
  M 344.55 472.09
  L 393.44 472.01
  A 0.87 0.87 0.0 0 0 394.31 471.15
  Q 394.95 437.99 400.19 405.09
  Q 411.57 333.72 439.57 269.67
  A 1.50 1.49 -61.1 0 0 439.04 267.82
  C 428.99 260.95 419.89 253.50 413.86 243.47
  C 404.03 227.13 401.40 206.64 401.30 187.34
  Q 401.12 154.40 401.28 119.82
  Q 401.28 118.81 400.27 118.81
  L 355.55 118.74"
/>
<path stroke="#626f80" vector-effect="non-scaling-stroke" d="
  M 355.55 118.74
  L 275.53 118.80
  Q 274.95 118.80 274.96 119.38
  Q 275.13 153.92 274.95 186.68
  C 274.79 214.17 269.20 242.29 253.89 264.61
  C 249.60 270.87 244.56 277.27 239.22 282.69
  Q 229.36 292.69 219.16 303.15
  Q 213.83 308.60 208.78 315.74
  C 194.06 336.53 192.71 361.29 192.75 386.00
  Q 192.82 428.03 192.85 470.95
  Q 192.85 472.06 193.96 472.06
  L 344.55 472.09"
/>
<path stroke="#b0d2fd" vector-effect="non-scaling-stroke" d="
  M 355.55 118.74
  Q 355.70 122.23 355.71 125.50
  Q 355.81 162.19 355.77 192.00
  Q 355.76 205.37 357.32 217.91
  C 359.23 233.17 365.08 247.96 377.38 257.46
  C 383.76 262.38 391.09 267.07 397.92 271.46
  Q 399.31 272.35 398.59 273.83
  Q 381.10 310.00 369.23 351.39
  C 358.23 389.73 351.46 428.08 349.44 466.75
  C 349.29 469.62 347.45 471.85 344.55 472.09"
/>
<path stroke="#765f42" vector-effect="non-scaling-stroke" d="
  M 594.54 143.85
  Q 590.56 144.68 585.75 146.57
  Q 571.40 152.22 560.51 160.27
  Q 549.60 168.33 546.94 170.73
  C 510.39 203.80 483.87 248.62 464.86 294.99
  C 442.03 350.64 428.47 411.14 427.24 471.43
  A 0.55 0.55 0.0 0 0 427.79 471.99
  L 628.80 472.03"
/>
<path stroke="#71553b" vector-effect="non-scaling-stroke" d="
  M 628.80 472.03
  L 670.02 471.95
  A 1.54 1.54 0.0 0 0 671.47 470.92
  C 690.35 416.38 700.48 358.71 699.46 301.21
  C 698.93 271.38 694.92 240.53 685.55 212.60
  C 679.56 194.75 671.20 178.18 659.22 164.44
  C 642.80 145.61 619.72 137.26 594.54 143.85"
/>
<path stroke="#e7b37c" vector-effect="non-scaling-stroke" d="
  M 628.80 472.03
  Q 631.14 470.01 631.84 467.75
  Q 637.41 450.01 642.92 427.02
  Q 643.53 424.47 643.97 421.96
  C 644.54 418.79 645.65 415.79 646.02 412.55
  C 646.44 408.87 647.63 405.44 648.09 401.72
  C 648.86 395.58 650.11 389.63 650.95 383.65
  Q 656.22 346.12 655.87 309.60
  C 655.80 302.20 655.13 294.63 654.89 287.18
  C 654.70 281.58 653.81 275.99 653.28 270.51
  Q 652.65 264.07 651.69 258.02
  Q 648.63 238.81 643.23 220.76
  C 636.20 197.26 625.24 174.70 608.37 156.81
  Q 606.79 155.13 601.30 150.54
  Q 597.68 147.52 594.54 143.85"
/>
<path stroke="#667a4f" vector-effect="non-scaling-stroke" d="
  M 1020.71 241.27
  Q 1034.89 234.80 1046.65 223.82
  Q 1058.90 212.37 1071.35 200.12
  Q 1071.92 199.56 1071.15 199.34
  Q 1056.63 195.27 1040.93 190.62
  Q 1029.43 187.21 1021.41 186.29
  Q 1006.85 184.63 990.69 187.15
  C 989.74 187.29 988.27 187.87 987.67 188.65
  Q 977.68 201.67 963.48 213.74
  Q 961.89 215.09 963.18 216.91
  Q 974.72 233.05 981.70 251.25
  A 0.64 0.63 75.9 0 0 982.37 251.66
  Q 1003.17 249.28 1020.71 241.27"
/>
<path stroke="#806832" vector-effect="non-scaling-stroke" d="
  M 829.54 190.33
  C 790.72 193.61 755.57 214.77 736.48 248.86
  Q 732.57 255.85 730.57 262.20
  Q 729.99 264.03 730.22 266.06
  Q 732.07 282.90 732.40 299.58
  C 733.56 357.75 724.04 416.01 706.03 471.36
  A 0.48 0.48 0.0 0 0 706.49 471.99
  L 783.47 472.06"
/>
<path stroke="#805530" vector-effect="non-scaling-stroke" d="
  M 783.47 472.06
  Q 802.23 472.12 820.81 472.01
  C 823.35 471.99 825.84 472.29 828.27 471.52
  Q 830.00 470.97 832.87 467.99
  Q 843.47 456.96 853.41 446.40
  A 0.82 0.82 0.0 0 0 853.20 445.12
  L 824.46 429.28"
/>
<path stroke="#806832" vector-effect="non-scaling-stroke" d="
  M 824.46 429.28
  Q 811.81 422.22 799.51 415.48
  Q 794.18 412.56 792.13 409.83
  C 785.53 401.04 788.56 388.76 798.85 384.53
  Q 805.80 381.68 813.22 385.52
  Q 821.77 389.94 848.31 404.82"
/>
<path stroke="#805530" vector-effect="non-scaling-stroke" d="
  M 848.31 404.82
  L 877.28 420.45
  A 0.79 0.78 39.5 0 0 878.16 420.37
  Q 879.36 419.37 880.37 418.30
  Q 896.41 401.31 914.11 382.91
  Q 915.45 381.51 916.60 379.72
  A 0.52 0.51 31.2 0 0 916.42 378.99
  L 884.48 361.44"
/>
<path stroke="#806832" vector-effect="non-scaling-stroke" d="
  M 884.48 361.44
  Q 860.33 347.98 837.11 335.39
  C 830.18 331.64 822.88 328.07 821.55 319.43
  C 819.56 306.54 832.44 296.50 844.59 302.12
  C 846.80 303.14 849.08 304.15 851.18 305.32
  Q 874.06 318.09 898.33 331.40"
/>
<path stroke="#805530" vector-effect="non-scaling-stroke" d="
  M 898.33 331.40
  L 938.65 353.45
  A 1.24 1.23 -59.7 0 0 940.29 353.01
  C 948.23 340.26 953.66 326.93 955.86 312.19
  C 962.60 266.99 937.95 224.68 898.04 203.94
  Q 865.89 187.22 829.54 190.33"
/>
<path stroke="#ffbd62" vector-effect="non-scaling-stroke" d="
  M 898.33 331.40
  Q 903.21 313.78 902.65 295.64
  C 902.50 291.07 901.60 286.62 901.07 282.08
  Q 900.49 277.14 899.10 271.78
  C 890.71 239.58 869.01 211.43 839.23 194.87
  C 837.06 193.66 836.15 192.14 833.49 191.53
  Q 831.47 191.06 829.54 190.33"
/>
<path stroke="#ffbd62" vector-effect="non-scaling-stroke" d="
  M 884.48 361.44
  Q 880.88 370.12 874.01 377.52
  Q 861.35 391.14 848.31 404.82"
/>
<path stroke="#ffbd62" vector-effect="non-scaling-stroke" d="
  M 824.46 429.28
  Q 806.71 448.66 788.49 467.23
  Q 787.57 468.16 787.21 469.39
  Q 787.08 469.87 786.65 470.13
  L 783.47 472.06"
/>
<path stroke="#80665f" vector-effect="non-scaling-stroke" d="
  M 401.99 650.64
  Q 428.45 650.65 455.00 650.66
  C 457.61 650.66 460.56 651.06 462.20 648.53
  Q 463.49 646.54 464.59 644.37
  Q 499.67 575.29 532.09 512.06
  Q 533.78 508.77 535.20 505.61
  A 0.44 0.44 0.0 0 0 534.80 504.98
  L 473.05 505.04"
/>
<path stroke="#806f68" vector-effect="non-scaling-stroke" d="
  M 473.05 505.04
  Q 189.84 504.94 115.75 505.03
  C 112.76 505.04 111.69 508.23 110.58 510.41
  Q 75.15 580.05 39.51 649.69
  A 0.59 0.59 0.0 0 0 40.03 650.55
  L 401.99 650.64"
/>
<path stroke="#ffd5c7" vector-effect="non-scaling-stroke" d="
  M 473.05 505.04
  Q 472.81 506.02 472.98 506.81
  Q 473.08 507.28 472.79 507.67
  Q 471.75 509.12 470.94 510.70
  Q 435.29 580.53 402.55 645.02
  Q 401.37 647.33 401.99 650.64"
/>
<path stroke="#6e4d3b" vector-effect="non-scaling-stroke" d="
  M 823.78 666.79
  Q 823.32 676.63 816.06 681.11
  C 811.89 683.69 806.67 683.65 801.80 683.63
  Q 735.51 683.38 666.67 683.54
  Q 650.47 683.58 639.41 671.61
  Q 634.76 666.57 631.09 659.34
  Q 606.19 610.33 583.32 565.50
  Q 581.57 562.08 579.65 558.75
  Q 578.75 557.19 578.76 558.99
  L 578.94 637.23"
/>
<path stroke="#7c5841" vector-effect="non-scaling-stroke" d="
  M 578.94 637.23
  L 578.96 1085.94
  A 1.02 1.02 0.0 0 0 579.98 1086.96
  L 992.43 1086.97"
/>
<path stroke="#6e4d3b" vector-effect="non-scaling-stroke" d="
  M 992.43 1086.97
  L 1038.10 1086.96
  Q 1039.25 1086.96 1039.25 1085.81
  L 1039.25 683.79
  A 0.28 0.27 0.0 0 0 1038.97 683.52
  Q 965.97 683.46 892.92 683.56
  Q 890.08 683.56 887.08 683.61
  Q 880.77 683.70 878.45 682.81
  Q 867.27 678.48 867.22 666.43"
/>
<path stroke="#806f68" vector-effect="non-scaling-stroke" d="
  M 867.22 666.43
  Q 869.63 650.81 885.00 650.75
  Q 927.64 650.57 1018.82 650.63"
/>
<path stroke="#80665f" vector-effect="non-scaling-stroke" d="
  M 1018.82 650.63
  L 1085.19 650.56
  A 0.44 0.43 -13.4 0 0 1085.58 649.93
  L 1012.87 507.36
  A 4.31 4.31 0.0 0 0 1009.03 505.01
  L 944.71 505.03"
/>
<path stroke="#806f68" vector-effect="non-scaling-stroke" d="
  M 944.71 505.03
  L 590.25 505.03
  A 0.50 0.50 0.0 0 0 589.81 505.76
  Q 624.85 574.40 659.64 642.82
  Q 661.50 646.48 663.21 649.10
  A 3.56 3.55 73.2 0 0 666.20 650.71
  Q 735.48 650.60 802.78 650.68
  C 806.03 650.69 809.74 650.63 812.69 651.74
  Q 822.68 655.48 823.78 666.79"
/>
<path stroke="#ffd5c7" vector-effect="non-scaling-stroke" d="
  M 944.71 505.03
  Q 946.00 505.71 945.93 506.95
  Q 945.90 507.45 946.13 507.90
  L 1018.82 650.63"
/>
<path stroke="#edbca2" vector-effect="non-scaling-stroke" d="
  M 867.22 666.43
  L 823.78 666.79"
/>
<path stroke="#e9a57b" vector-effect="non-scaling-stroke" d="
  M 992.43 1086.97
  L 992.74 737.55
  Q 992.74 733.82 989.01 733.82
  Q 823.22 733.93 653.65 733.85
  Q 639.25 733.85 636.43 733.13
  Q 627.17 730.79 622.38 721.15
  Q 603.01 682.24 584.12 643.81
  Q 583.58 642.70 583.07 641.55
  Q 581.52 638.04 578.94 637.23"
/>
<path stroke="#765f42" vector-effect="non-scaling-stroke" d="
  M 641.6724 304.9119
  A 16.02 16.02 0.0 0 0 629.2339 285.9761
  L 552.1299 270.0087
  A 16.02 16.02 0.0 0 0 533.1941 282.4472
  L 533.0076 283.3481
  A 16.02 16.02 0.0 0 0 545.4461 302.2839
  L 622.5501 318.2513
  A 16.02 16.02 0.0 0 0 641.4859 305.8128
  L 641.6724 304.9119"
/>
<path stroke="#765f42" vector-effect="non-scaling-stroke" d="
  M 643.4664 411.4940
  A 16.16 16.16 0.0 0 0 630.9192 392.3927
  L 502.6606 365.8317
  A 16.16 16.16 0.0 0 0 483.5593 378.3789
  L 483.4336 378.9860
  A 16.16 16.16 0.0 0 0 495.9808 398.0873
  L 624.2394 424.6483
  A 16.16 16.16 0.0 0 0 643.3407 412.1011
  L 643.4664 411.4940"
/>
<path stroke="#fbbc90" vector-effect="non-scaling-stroke" d="
  M 546.01 639.45
  Q 544.89 638.04 543.57 638.52
  Q 542.83 638.79 542.46 639.48
  Q 522.54 677.18 502.58 716.18
  Q 497.83 725.47 494.51 728.54
  Q 488.88 733.74 479.50 733.74
  Q 282.71 733.70 85.76 733.73"
/>
<path stroke="#806450" vector-effect="non-scaling-stroke" d="
  M 334.29 891.83
  A 16.11 16.11 0.0 0 0 318.18 875.72
  L 179.56 875.72
  A 16.11 16.11 0.0 0 0 163.45 891.83
  L 163.45 892.49
  A 16.11 16.11 0.0 0 0 179.56 908.60
  L 318.18 908.60
  A 16.11 16.11 0.0 0 0 334.29 892.49
  L 334.29 891.83"
/>
<path stroke="#806450" vector-effect="non-scaling-stroke" d="
  M 334.2693 974.6009
  A 16.06 16.06 0.0 0 0 318.1813 958.5690
  L 179.4615 958.8111
  A 16.06 16.06 0.0 0 0 163.4295 974.8991
  L 163.4307 975.5791
  A 16.06 16.06 0.0 0 0 179.5187 991.6110
  L 318.2385 991.3689
  A 16.06 16.06 0.0 0 0 334.2705 975.2809
  L 334.2693 974.6009"
/>
</g>
<path fill="#000000" d="
  M 1125.00 659.04
  L 1125.00 663.56
  Q 1122.76 676.51 1111.67 681.54
  C 1107.48 683.44 1103.16 683.60 1098.50 683.62
  Q 1085.73 683.69 1073.01 683.42
  A 0.78 0.78 0.0 0 0 1072.21 684.20
  Q 1072.25 909.14 1072.20 1090.74
  C 1072.20 1103.63 1064.18 1115.68 1051.49 1118.75
  Q 1046.63 1119.92 1039.00 1119.92
  Q 572.95 1119.77 101.41 1119.93
  Q 90.02 1119.93 80.25 1119.71
  C 67.74 1119.42 57.37 1111.27 54.04 1099.49
  Q 52.64 1094.53 52.67 1081.70
  Q 52.90 997.95 52.70 920.46
  Q 52.66 904.11 68.84 901.34
  Q 69.24 901.28 69.40 900.71
  Q 69.66 901.48 70.60 901.60
  Q 81.27 903.03 84.67 912.48
  C 85.57 914.98 85.75 918.77 85.75 921.54
  Q 85.73 1003.31 85.75 1085.91
  Q 85.75 1086.96 86.80 1086.96
  L 545.27 1086.95
  A 0.75 0.74 0.0 0 0 546.02 1086.21
  L 546.01 639.45
  L 546.11 559.70
  Q 546.11 556.96 544.87 559.40
  Q 519.68 608.72 494.60 657.93
  Q 490.88 665.22 488.04 669.01
  C 481.08 678.33 470.25 683.56 458.50 683.55
  Q 275.55 683.46 86.29 683.51
  Q 85.78 683.51 85.78 684.02
  L 85.76 733.73
  Q 85.69 785.17 85.80 836.04
  C 85.81 839.71 85.94 843.64 84.98 846.76
  Q 82.48 854.92 73.66 857.31
  Q 71.30 857.95 69.32 858.70
  Q 67.05 857.99 64.90 857.28
  C 55.99 854.30 52.73 846.75 52.73 838.07
  Q 52.75 762.71 52.77 684.09
  A 0.47 0.46 -89.4 0 0 52.32 683.62
  Q 42.67 683.41 32.52 683.70
  Q 20.72 684.03 15.12 682.19
  Q 3.15 678.24 0.00 663.97
  L 0.00 657.39
  Q 1.41 651.94 5.20 644.51
  Q 43.06 570.22 80.95 495.94
  Q 83.05 491.83 85.56 487.99
  C 90.25 480.84 98.31 475.29 106.20 473.19
  Q 110.71 471.98 122.31 471.98
  Q 140.67 471.99 159.08 472.00
  A 0.82 0.82 0.0 0 0 159.90 471.17
  Q 159.72 424.52 159.87 376.78
  Q 159.92 360.13 162.79 343.52
  Q 168.98 307.70 193.69 282.09
  Q 202.11 273.36 213.37 262.00
  C 225.48 249.76 234.44 235.61 238.47 218.39
  Q 241.98 203.42 242.01 184.46
  Q 242.07 152.74 242.01 119.75
  Q 242.00 118.47 240.80 118.04
  Q 223.01 111.64 223.00 93.09
  Q 222.99 61.94 223.00 30.53
  Q 223.01 13.51 238.73 6.67
  Q 242.10 5.20 249.00 5.19
  Q 339.69 5.06 427.00 5.09
  C 441.92 5.09 453.31 14.60 453.26 30.27
  Q 453.17 59.26 453.40 90.43
  Q 453.45 98.10 451.89 102.71
  C 449.63 109.36 443.87 115.26 436.66 117.49
  Q 435.56 117.83 434.58 118.31
  Q 434.06 118.57 434.06 119.15
  Q 434.07 147.96 434.09 180.88
  Q 434.09 196.87 436.30 210.02
  C 437.58 217.68 440.78 226.24 446.45 231.84
  Q 449.48 234.83 453.20 237.81
  Q 454.36 238.74 455.10 237.46
  Q 458.34 231.83 461.69 225.96
  Q 480.23 193.44 504.13 166.89
  C 541.06 125.88 598.12 90.37 653.83 118.97
  C 683.76 134.34 703.65 165.22 715.09 197.36
  Q 717.66 204.58 719.98 212.01
  A 0.85 0.85 0.0 0 0 721.45 212.29
  Q 745.23 183.37 780.18 169.00
  A 0.98 0.98 0.0 0 0 780.72 167.72
  C 769.87 141.36 767.45 111.47 776.32 84.20
  Q 784.64 58.64 792.35 35.75
  C 794.22 30.21 798.03 24.32 803.23 21.36
  C 814.56 14.93 824.73 19.99 833.42 27.82
  Q 857.07 49.13 871.02 61.97
  Q 884.90 74.74 894.36 91.92
  A 0.71 0.71 0.0 0 0 895.50 92.07
  Q 909.47 77.36 927.92 67.96
  Q 948.53 57.45 973.83 45.18
  Q 978.89 42.73 981.60 41.70
  C 990.23 38.41 999.75 39.74 1006.07 46.69
  C 1011.38 52.52 1012.33 60.20 1012.48 68.04
  Q 1012.97 93.26 1013.09 116.36
  Q 1013.17 134.21 1007.14 151.50
  A 0.88 0.88 0.0 0 0 1007.98 152.67
  Q 1027.11 152.53 1045.29 157.65
  Q 1074.29 165.82 1098.51 173.10
  C 1104.26 174.83 1110.04 178.74 1112.97 184.25
  C 1119.07 195.73 1113.08 205.93 1104.64 213.96
  Q 1088.70 229.14 1073.31 244.14
  C 1065.72 251.53 1057.18 258.64 1048.17 263.98
  Q 1021.27 279.93 989.96 283.82
  A 0.62 0.62 0.0 0 0 989.41 284.49
  Q 993.67 335.99 963.05 377.74
  Q 956.28 386.97 944.02 399.48
  Q 926.04 417.84 908.00 437.11
  C 897.22 448.62 886.31 459.63 875.35 471.23
  A 0.44 0.43 -68.1 0 0 875.66 471.97
  Q 937.94 472.09 1001.92 471.91
  Q 1011.81 471.89 1015.39 472.49
  C 1026.89 474.41 1036.80 481.98 1042.11 492.36
  Q 1080.95 568.24 1121.70 648.26
  Q 1124.02 652.81 1125.00 659.04
  Z
  M 420.38 38.70
  A 0.62 0.62 0.0 0 0 419.76 38.08
  L 256.58 38.08
  A 0.62 0.62 0.0 0 0 255.96 38.70
  L 255.96 85.12
  A 0.62 0.62 0.0 0 0 256.58 85.74
  L 419.76 85.74
  A 0.62 0.62 0.0 0 0 420.38 85.12
  L 420.38 38.70
  Z
  M 871.41 120.58
  C 867.67 111.48 863.34 103.01 857.11 95.29
  Q 852.12 89.10 843.66 81.50
  Q 831.67 70.71 819.81 60.01
  Q 819.19 59.45 818.92 60.25
  Q 812.92 78.28 807.76 94.08
  C 800.91 115.01 803.56 139.17 812.70 158.61
  A 1.44 1.43 -17.8 0 0 814.27 159.41
  Q 830.32 156.44 847.31 157.23
  Q 853.18 157.51 859.64 158.01
  A 0.87 0.86 -82.1 0 0 860.55 157.31
  Q 863.61 141.34 871.27 126.22
  Q 872.63 123.55 871.41 120.58
  Z
  M 945.74 95.72
  C 918.81 108.86 899.28 134.72 892.62 163.81
  A 2.09 2.09 0.0 0 0 893.94 166.23
  Q 910.87 172.41 925.37 181.90
  Q 930.73 185.41 937.49 190.20
  A 2.09 2.08 44.8 0 0 939.92 190.20
  Q 943.01 187.98 945.93 185.34
  C 966.08 167.10 980.62 141.51 980.20 114.33
  Q 979.98 99.62 979.78 84.69
  Q 979.74 82.20 979.32 79.81
  A 0.48 0.48 0.0 0 0 978.64 79.47
  Q 962.17 87.71 945.74 95.72
  Z
  M 344.55 472.09
  L 393.44 472.01
  A 0.87 0.87 0.0 0 0 394.31 471.15
  Q 394.95 437.99 400.19 405.09
  Q 411.57 333.72 439.57 269.67
  A 1.50 1.49 -61.1 0 0 439.04 267.82
  C 428.99 260.95 419.89 253.50 413.86 243.47
  C 404.03 227.13 401.40 206.64 401.30 187.34
  Q 401.12 154.40 401.28 119.82
  Q 401.28 118.81 400.27 118.81
  L 355.55 118.74
  L 275.53 118.80
  Q 274.95 118.80 274.96 119.38
  Q 275.13 153.92 274.95 186.68
  C 274.79 214.17 269.20 242.29 253.89 264.61
  C 249.60 270.87 244.56 277.27 239.22 282.69
  Q 229.36 292.69 219.16 303.15
  Q 213.83 308.60 208.78 315.74
  C 194.06 336.53 192.71 361.29 192.75 386.00
  Q 192.82 428.03 192.85 470.95
  Q 192.85 472.06 193.96 472.06
  L 344.55 472.09
  Z
  M 594.54 143.85
  Q 590.56 144.68 585.75 146.57
  Q 571.40 152.22 560.51 160.27
  Q 549.60 168.33 546.94 170.73
  C 510.39 203.80 483.87 248.62 464.86 294.99
  C 442.03 350.64 428.47 411.14 427.24 471.43
  A 0.55 0.55 0.0 0 0 427.79 471.99
  L 628.80 472.03
  L 670.02 471.95
  A 1.54 1.54 0.0 0 0 671.47 470.92
  C 690.35 416.38 700.48 358.71 699.46 301.21
  C 698.93 271.38 694.92 240.53 685.55 212.60
  C 679.56 194.75 671.20 178.18 659.22 164.44
  C 642.80 145.61 619.72 137.26 594.54 143.85
  Z
  M 1020.71 241.27
  Q 1034.89 234.80 1046.65 223.82
  Q 1058.90 212.37 1071.35 200.12
  Q 1071.92 199.56 1071.15 199.34
  Q 1056.63 195.27 1040.93 190.62
  Q 1029.43 187.21 1021.41 186.29
  Q 1006.85 184.63 990.69 187.15
  C 989.74 187.29 988.27 187.87 987.67 188.65
  Q 977.68 201.67 963.48 213.74
  Q 961.89 215.09 963.18 216.91
  Q 974.72 233.05 981.70 251.25
  A 0.64 0.63 75.9 0 0 982.37 251.66
  Q 1003.17 249.28 1020.71 241.27
  Z
  M 829.54 190.33
  C 790.72 193.61 755.57 214.77 736.48 248.86
  Q 732.57 255.85 730.57 262.20
  Q 729.99 264.03 730.22 266.06
  Q 732.07 282.90 732.40 299.58
  C 733.56 357.75 724.04 416.01 706.03 471.36
  A 0.48 0.48 0.0 0 0 706.49 471.99
  L 783.47 472.06
  Q 802.23 472.12 820.81 472.01
  C 823.35 471.99 825.84 472.29 828.27 471.52
  Q 830.00 470.97 832.87 467.99
  Q 843.47 456.96 853.41 446.40
  A 0.82 0.82 0.0 0 0 853.20 445.12
  L 824.46 429.28
  Q 811.81 422.22 799.51 415.48
  Q 794.18 412.56 792.13 409.83
  C 785.53 401.04 788.56 388.76 798.85 384.53
  Q 805.80 381.68 813.22 385.52
  Q 821.77 389.94 848.31 404.82
  L 877.28 420.45
  A 0.79 0.78 39.5 0 0 878.16 420.37
  Q 879.36 419.37 880.37 418.30
  Q 896.41 401.31 914.11 382.91
  Q 915.45 381.51 916.60 379.72
  A 0.52 0.51 31.2 0 0 916.42 378.99
  L 884.48 361.44
  Q 860.33 347.98 837.11 335.39
  C 830.18 331.64 822.88 328.07 821.55 319.43
  C 819.56 306.54 832.44 296.50 844.59 302.12
  C 846.80 303.14 849.08 304.15 851.18 305.32
  Q 874.06 318.09 898.33 331.40
  L 938.65 353.45
  A 1.24 1.23 -59.7 0 0 940.29 353.01
  C 948.23 340.26 953.66 326.93 955.86 312.19
  C 962.60 266.99 937.95 224.68 898.04 203.94
  Q 865.89 187.22 829.54 190.33
  Z
  M 401.99 650.64
  Q 428.45 650.65 455.00 650.66
  C 457.61 650.66 460.56 651.06 462.20 648.53
  Q 463.49 646.54 464.59 644.37
  Q 499.67 575.29 532.09 512.06
  Q 533.78 508.77 535.20 505.61
  A 0.44 0.44 0.0 0 0 534.80 504.98
  L 473.05 505.04
  Q 189.84 504.94 115.75 505.03
  C 112.76 505.04 111.69 508.23 110.58 510.41
  Q 75.15 580.05 39.51 649.69
  A 0.59 0.59 0.0 0 0 40.03 650.55
  L 401.99 650.64
  Z
  M 823.78 666.79
  Q 823.32 676.63 816.06 681.11
  C 811.89 683.69 806.67 683.65 801.80 683.63
  Q 735.51 683.38 666.67 683.54
  Q 650.47 683.58 639.41 671.61
  Q 634.76 666.57 631.09 659.34
  Q 606.19 610.33 583.32 565.50
  Q 581.57 562.08 579.65 558.75
  Q 578.75 557.19 578.76 558.99
  L 578.94 637.23
  L 578.96 1085.94
  A 1.02 1.02 0.0 0 0 579.98 1086.96
  L 992.43 1086.97
  L 1038.10 1086.96
  Q 1039.25 1086.96 1039.25 1085.81
  L 1039.25 683.79
  A 0.28 0.27 0.0 0 0 1038.97 683.52
  Q 965.97 683.46 892.92 683.56
  Q 890.08 683.56 887.08 683.61
  Q 880.77 683.70 878.45 682.81
  Q 867.27 678.48 867.22 666.43
  Q 869.63 650.81 885.00 650.75
  Q 927.64 650.57 1018.82 650.63
  L 1085.19 650.56
  A 0.44 0.43 -13.4 0 0 1085.58 649.93
  L 1012.87 507.36
  A 4.31 4.31 0.0 0 0 1009.03 505.01
  L 944.71 505.03
  L 590.25 505.03
  A 0.50 0.50 0.0 0 0 589.81 505.76
  Q 624.85 574.40 659.64 642.82
  Q 661.50 646.48 663.21 649.10
  A 3.56 3.55 73.2 0 0 666.20 650.71
  Q 735.48 650.60 802.78 650.68
  C 806.03 650.69 809.74 650.63 812.69 651.74
  Q 822.68 655.48 823.78 666.79
  Z"
/>
<rect fill="#ccf49e" x="255.96" y="38.08" width="164.42" height="47.66" rx="0.62"/>
<path fill="#ccf49e" d="
  M 857.11 95.29
  C 863.34 103.01 867.67 111.48 871.41 120.58
  Q 872.63 123.55 871.27 126.22
  Q 863.61 141.34 860.55 157.31
  A 0.87 0.86 -82.1 0 1 859.64 158.01
  Q 853.18 157.51 847.31 157.23
  Q 830.32 156.44 814.27 159.41
  A 1.44 1.43 -17.8 0 1 812.70 158.61
  C 803.56 139.17 800.91 115.01 807.76 94.08
  Q 812.92 78.28 818.92 60.25
  Q 819.19 59.45 819.81 60.01
  Q 831.67 70.71 843.66 81.50
  Q 852.12 89.10 857.11 95.29
  Z"
/>
<path fill="#ccf49e" d="
  M 945.74 95.72
  Q 962.17 87.71 978.64 79.47
  A 0.48 0.48 0.0 0 1 979.32 79.81
  Q 979.74 82.20 979.78 84.69
  Q 979.98 99.62 980.20 114.33
  C 980.62 141.51 966.08 167.10 945.93 185.34
  Q 943.01 187.98 939.92 190.20
  A 2.09 2.08 44.8 0 1 937.49 190.20
  Q 930.73 185.41 925.37 181.90
  Q 910.87 172.41 893.94 166.23
  A 2.09 2.09 0.0 0 1 892.62 163.81
  C 899.28 134.72 918.81 108.86 945.74 95.72
  Z"
/>
<path fill="#c3ddff" d="
  M 355.55 118.74
  Q 355.70 122.23 355.71 125.50
  Q 355.81 162.19 355.77 192.00
  Q 355.76 205.37 357.32 217.91
  C 359.23 233.17 365.08 247.96 377.38 257.46
  C 383.76 262.38 391.09 267.07 397.92 271.46
  Q 399.31 272.35 398.59 273.83
  Q 381.10 310.00 369.23 351.39
  C 358.23 389.73 351.46 428.08 349.44 466.75
  C 349.29 469.62 347.45 471.85 344.55 472.09
  L 193.96 472.06
  Q 192.85 472.06 192.85 470.95
  Q 192.82 428.03 192.75 386.00
  C 192.71 361.29 194.06 336.53 208.78 315.74
  Q 213.83 308.60 219.16 303.15
  Q 229.36 292.69 239.22 282.69
  C 244.56 277.27 249.60 270.87 253.89 264.61
  C 269.20 242.29 274.79 214.17 274.95 186.68
  Q 275.13 153.92 274.96 119.38
  Q 274.95 118.80 275.53 118.80
  L 355.55 118.74
  Z"
/>
<path fill="#9dc6fb" d="
  M 355.55 118.74
  L 400.27 118.81
  Q 401.28 118.81 401.28 119.82
  Q 401.12 154.40 401.30 187.34
  C 401.40 206.64 404.03 227.13 413.86 243.47
  C 419.89 253.50 428.99 260.95 439.04 267.82
  A 1.50 1.49 -61.1 0 1 439.57 269.67
  Q 411.57 333.72 400.19 405.09
  Q 394.95 437.99 394.31 471.15
  A 0.87 0.87 0.0 0 1 393.44 472.01
  L 344.55 472.09
  C 347.45 471.85 349.29 469.62 349.44 466.75
  C 351.46 428.08 358.23 389.73 369.23 351.39
  Q 381.10 310.00 398.59 273.83
  Q 399.31 272.35 397.92 271.46
  C 391.09 267.07 383.76 262.38 377.38 257.46
  C 365.08 247.96 359.23 233.17 357.32 217.91
  Q 355.76 205.37 355.77 192.00
  Q 355.81 162.19 355.71 125.50
  Q 355.70 122.23 355.55 118.74
  Z"
/>
<path fill="#e2a975" d="
  M 628.80 472.03
  Q 631.14 470.01 631.84 467.75
  Q 637.41 450.01 642.92 427.02
  Q 643.53 424.47 643.97 421.96
  C 644.54 418.79 645.65 415.79 646.02 412.55
  C 646.44 408.87 647.63 405.44 648.09 401.72
  C 648.86 395.58 650.11 389.63 650.95 383.65
  Q 656.22 346.12 655.87 309.60
  C 655.80 302.20 655.13 294.63 654.89 287.18
  C 654.70 281.58 653.81 275.99 653.28 270.51
  Q 652.65 264.07 651.69 258.02
  Q 648.63 238.81 643.23 220.76
  C 636.20 197.26 625.24 174.70 608.37 156.81
  Q 606.79 155.13 601.30 150.54
  Q 597.68 147.52 594.54 143.85
  C 619.72 137.26 642.80 145.61 659.22 164.44
  C 671.20 178.18 679.56 194.75 685.55 212.60
  C 694.92 240.53 698.93 271.38 699.46 301.21
  C 700.48 358.71 690.35 416.38 671.47 470.92
  A 1.54 1.54 0.0 0 1 670.02 471.95
  L 628.80 472.03
  Z"
/>
<path fill="#ecbd83" d="
  M 594.54 143.85
  Q 597.68 147.52 601.30 150.54
  Q 606.79 155.13 608.37 156.81
  C 625.24 174.70 636.20 197.26 643.23 220.76
  Q 648.63 238.81 651.69 258.02
  Q 652.65 264.07 653.28 270.51
  C 653.81 275.99 654.70 281.58 654.89 287.18
  C 655.13 294.63 655.80 302.20 655.87 309.60
  Q 656.22 346.12 650.95 383.65
  C 650.11 389.63 648.86 395.58 648.09 401.72
  C 647.63 405.44 646.44 408.87 646.02 412.55
  C 645.65 415.79 644.54 418.79 643.97 421.96
  Q 643.53 424.47 642.92 427.02
  Q 637.41 450.01 631.84 467.75
  Q 631.14 470.01 628.80 472.03
  L 427.79 471.99
  A 0.55 0.55 0.0 0 1 427.24 471.43
  C 428.47 411.14 442.03 350.64 464.86 294.99
  C 483.87 248.62 510.39 203.80 546.94 170.73
  Q 549.60 168.33 560.51 160.27
  Q 571.40 152.22 585.75 146.57
  Q 590.56 144.68 594.54 143.85
  Z
  M 641.6724 304.9119
  A 16.02 16.02 0.0 0 0 629.2339 285.9761
  L 552.1299 270.0087
  A 16.02 16.02 0.0 0 0 533.1941 282.4472
  L 533.0076 283.3481
  A 16.02 16.02 0.0 0 0 545.4461 302.2839
  L 622.5501 318.2513
  A 16.02 16.02 0.0 0 0 641.4859 305.8128
  L 641.6724 304.9119
  Z
  M 643.4664 411.4940
  A 16.16 16.16 0.0 0 0 630.9192 392.3927
  L 502.6606 365.8317
  A 16.16 16.16 0.0 0 0 483.5593 378.3789
  L 483.4336 378.9860
  A 16.16 16.16 0.0 0 0 495.9808 398.0873
  L 624.2394 424.6483
  A 16.16 16.16 0.0 0 0 643.3407 412.1011
  L 643.4664 411.4940
  Z"
/>
<path fill="#ccf49e" d="
  M 1020.71 241.27
  Q 1003.17 249.28 982.37 251.66
  A 0.64 0.63 75.9 0 1 981.70 251.25
  Q 974.72 233.05 963.18 216.91
  Q 961.89 215.09 963.48 213.74
  Q 977.68 201.67 987.67 188.65
  C 988.27 187.87 989.74 187.29 990.69 187.15
  Q 1006.85 184.63 1021.41 186.29
  Q 1029.43 187.21 1040.93 190.62
  Q 1056.63 195.27 1071.15 199.34
  Q 1071.92 199.56 1071.35 200.12
  Q 1058.90 212.37 1046.65 223.82
  Q 1034.89 234.80 1020.71 241.27
  Z"
/>
<path fill="#ffa95f" d="
  M 898.33 331.40
  Q 903.21 313.78 902.65 295.64
  C 902.50 291.07 901.60 286.62 901.07 282.08
  Q 900.49 277.14 899.10 271.78
  C 890.71 239.58 869.01 211.43 839.23 194.87
  C 837.06 193.66 836.15 192.14 833.49 191.53
  Q 831.47 191.06 829.54 190.33
  Q 865.89 187.22 898.04 203.94
  C 937.95 224.68 962.60 266.99 955.86 312.19
  C 953.66 326.93 948.23 340.26 940.29 353.01
  A 1.24 1.23 -59.7 0 1 938.65 353.45
  L 898.33 331.40
  Z"
/>
<path fill="#ffd064" d="
  M 829.54 190.33
  Q 831.47 191.06 833.49 191.53
  C 836.15 192.14 837.06 193.66 839.23 194.87
  C 869.01 211.43 890.71 239.58 899.10 271.78
  Q 900.49 277.14 901.07 282.08
  C 901.60 286.62 902.50 291.07 902.65 295.64
  Q 903.21 313.78 898.33 331.40
  Q 874.06 318.09 851.18 305.32
  C 849.08 304.15 846.80 303.14 844.59 302.12
  C 832.44 296.50 819.56 306.54 821.55 319.43
  C 822.88 328.07 830.18 331.64 837.11 335.39
  Q 860.33 347.98 884.48 361.44
  Q 880.88 370.12 874.01 377.52
  Q 861.35 391.14 848.31 404.82
  Q 821.77 389.94 813.22 385.52
  Q 805.80 381.68 798.85 384.53
  C 788.56 388.76 785.53 401.04 792.13 409.83
  Q 794.18 412.56 799.51 415.48
  Q 811.81 422.22 824.46 429.28
  Q 806.71 448.66 788.49 467.23
  Q 787.57 468.16 787.21 469.39
  Q 787.08 469.87 786.65 470.13
  L 783.47 472.06
  L 706.49 471.99
  A 0.48 0.48 0.0 0 1 706.03 471.36
  C 724.04 416.01 733.56 357.75 732.40 299.58
  Q 732.07 282.90 730.22 266.06
  Q 729.99 264.03 730.57 262.20
  Q 732.57 255.85 736.48 248.86
  C 755.57 214.77 790.72 193.61 829.54 190.33
  Z"
/>
<rect fill="#000000" x="-55.39" y="-16.48" transform="translate(587.34,294.13) rotate(11.7)" width="110.78" height="32.96" rx="16.02"/>
<path fill="#ffa95f" d="
  M 884.48 361.44
  L 916.42 378.99
  A 0.52 0.51 31.2 0 1 916.60 379.72
  Q 915.45 381.51 914.11 382.91
  Q 896.41 401.31 880.37 418.30
  Q 879.36 419.37 878.16 420.37
  A 0.79 0.78 39.5 0 1 877.28 420.45
  L 848.31 404.82
  Q 861.35 391.14 874.01 377.52
  Q 880.88 370.12 884.48 361.44
  Z"
/>
<rect fill="#000000" x="-81.65" y="-16.47" transform="translate(563.45,395.24) rotate(11.7)" width="163.30" height="32.94" rx="16.16"/>
<path fill="#ffa95f" d="
  M 824.46 429.28
  L 853.20 445.12
  A 0.82 0.82 0.0 0 1 853.41 446.40
  Q 843.47 456.96 832.87 467.99
  Q 830.00 470.97 828.27 471.52
  C 825.84 472.29 823.35 471.99 820.81 472.01
  Q 802.23 472.12 783.47 472.06
  L 786.65 470.13
  Q 787.08 469.87 787.21 469.39
  Q 787.57 468.16 788.49 467.23
  Q 806.71 448.66 824.46 429.28
  Z"
/>
<path fill="#ffdecf" d="
  M 473.05 505.04
  Q 472.81 506.02 472.98 506.81
  Q 473.08 507.28 472.79 507.67
  Q 471.75 509.12 470.94 510.70
  Q 435.29 580.53 402.55 645.02
  Q 401.37 647.33 401.99 650.64
  L 40.03 650.55
  A 0.59 0.59 0.0 0 1 39.51 649.69
  Q 75.15 580.05 110.58 510.41
  C 111.69 508.23 112.76 505.04 115.75 505.03
  Q 189.84 504.94 473.05 505.04
  Z"
/>
<path fill="#ffcbbe" d="
  M 473.05 505.04
  L 534.80 504.98
  A 0.44 0.44 0.0 0 1 535.20 505.61
  Q 533.78 508.77 532.09 512.06
  Q 499.67 575.29 464.59 644.37
  Q 463.49 646.54 462.20 648.53
  C 460.56 651.06 457.61 650.66 455.00 650.66
  Q 428.45 650.65 401.99 650.64
  Q 401.37 647.33 402.55 645.02
  Q 435.29 580.53 470.94 510.70
  Q 471.75 509.12 472.79 507.67
  Q 473.08 507.28 472.98 506.81
  Q 472.81 506.02 473.05 505.04
  Z"
/>
<path fill="#ffdecf" d="
  M 944.71 505.03
  Q 946.00 505.71 945.93 506.95
  Q 945.90 507.45 946.13 507.90
  L 1018.82 650.63
  Q 927.64 650.57 885.00 650.75
  Q 869.63 650.81 867.22 666.43
  L 823.78 666.79
  Q 822.68 655.48 812.69 651.74
  C 809.74 650.63 806.03 650.69 802.78 650.68
  Q 735.48 650.60 666.20 650.71
  A 3.56 3.55 73.2 0 1 663.21 649.10
  Q 661.50 646.48 659.64 642.82
  Q 624.85 574.40 589.81 505.76
  A 0.50 0.50 0.0 0 1 590.25 505.03
  L 944.71 505.03
  Z"
/>
<path fill="#ffcbbe" d="
  M 944.71 505.03
  L 1009.03 505.01
  A 4.31 4.31 0.0 0 1 1012.87 507.36
  L 1085.58 649.93
  A 0.44 0.43 -13.4 0 1 1085.19 650.56
  L 1018.82 650.63
  L 946.13 507.90
  Q 945.90 507.45 945.93 506.95
  Q 946.00 505.71 944.71 505.03
  Z"
/>
<path fill="#db9975" d="
  M 823.78 666.79
  L 867.22 666.43
  Q 867.27 678.48 878.45 682.81
  Q 880.77 683.70 887.08 683.61
  Q 890.08 683.56 892.92 683.56
  Q 965.97 683.46 1038.97 683.52
  A 0.28 0.27 -0.0 0 1 1039.25 683.79
  L 1039.25 1085.81
  Q 1039.25 1086.96 1038.10 1086.96
  L 992.43 1086.97
  L 992.74 737.55
  Q 992.74 733.82 989.01 733.82
  Q 823.22 733.93 653.65 733.85
  Q 639.25 733.85 636.43 733.13
  Q 627.17 730.79 622.38 721.15
  Q 603.01 682.24 584.12 643.81
  Q 583.58 642.70 583.07 641.55
  Q 581.52 638.04 578.94 637.23
  L 578.76 558.99
  Q 578.75 557.19 579.65 558.75
  Q 581.57 562.08 583.32 565.50
  Q 606.19 610.33 631.09 659.34
  Q 634.76 666.57 639.41 671.61
  Q 650.47 683.58 666.67 683.54
  Q 735.51 683.38 801.80 683.63
  C 806.67 683.65 811.89 683.69 816.06 681.11
  Q 823.32 676.63 823.78 666.79
  Z"
/>
<path fill="#f7b081" d="
  M 546.01 639.45
  Q 544.89 638.04 543.57 638.52
  Q 542.83 638.79 542.46 639.48
  Q 522.54 677.18 502.58 716.18
  Q 497.83 725.47 494.51 728.54
  Q 488.88 733.74 479.50 733.74
  Q 282.71 733.70 85.76 733.73
  L 85.78 684.02
  Q 85.78 683.51 86.29 683.51
  Q 275.55 683.46 458.50 683.55
  C 470.25 683.56 481.08 678.33 488.04 669.01
  Q 490.88 665.22 494.60 657.93
  Q 519.68 608.72 544.87 559.40
  Q 546.11 556.96 546.11 559.70
  L 546.01 639.45
  Z"
/>
<path fill="#f7b081" d="
  M 578.94 637.23
  Q 581.52 638.04 583.07 641.55
  Q 583.58 642.70 584.12 643.81
  Q 603.01 682.24 622.38 721.15
  Q 627.17 730.79 636.43 733.13
  Q 639.25 733.85 653.65 733.85
  Q 823.22 733.93 989.01 733.82
  Q 992.74 733.82 992.74 737.55
  L 992.43 1086.97
  L 579.98 1086.96
  A 1.02 1.02 0.0 0 1 578.96 1085.94
  L 578.94 637.23
  Z"
/>
<path fill="#ffc89f" d="
  M 546.01 639.45
  L 546.02 1086.21
  A 0.75 0.74 -0.0 0 1 545.27 1086.95
  L 86.80 1086.96
  Q 85.75 1086.96 85.75 1085.91
  Q 85.73 1003.31 85.75 921.54
  C 85.75 918.77 85.57 914.98 84.67 912.48
  Q 81.27 903.03 70.60 901.60
  Q 69.66 901.48 69.40 900.71
  L 69.32 858.70
  Q 71.30 857.95 73.66 857.31
  Q 82.48 854.92 84.98 846.76
  C 85.94 843.64 85.81 839.71 85.80 836.04
  Q 85.69 785.17 85.76 733.73
  Q 282.71 733.70 479.50 733.74
  Q 488.88 733.74 494.51 728.54
  Q 497.83 725.47 502.58 716.18
  Q 522.54 677.18 542.46 639.48
  Q 542.83 638.79 543.57 638.52
  Q 544.89 638.04 546.01 639.45
  Z
  M 334.29 891.83
  A 16.11 16.11 0.0 0 0 318.18 875.72
  L 179.56 875.72
  A 16.11 16.11 0.0 0 0 163.45 891.83
  L 163.45 892.49
  A 16.11 16.11 0.0 0 0 179.56 908.60
  L 318.18 908.60
  A 16.11 16.11 0.0 0 0 334.29 892.49
  L 334.29 891.83
  Z
  M 334.2693 974.6009
  A 16.06 16.06 0.0 0 0 318.1813 958.5690
  L 179.4615 958.8111
  A 16.06 16.06 0.0 0 0 163.4295 974.8991
  L 163.4307 975.5791
  A 16.06 16.06 0.0 0 0 179.5187 991.6110
  L 318.2385 991.3689
  A 16.06 16.06 0.0 0 0 334.2705 975.2809
  L 334.2693 974.6009
  Z"
/>
<rect fill="#000000" x="163.45" y="875.72" width="170.84" height="32.88" rx="16.11"/>
<rect fill="#000000" x="-85.42" y="-16.40" transform="translate(248.85,975.09) rotate(-0.1)" width="170.84" height="32.80" rx="16.06"/>
</svg>
