<?xml version="1.0" encoding="UTF-8" standalone="no"?>
<!DOCTYPE svg PUBLIC "-//W3C//DTD SVG 1.1//EN" "http://www.w3.org/Graphics/SVG/1.1/DTD/svg11.dtd">
<svg xmlns="http://www.w3.org/2000/svg" version="1.1" viewBox="0.00 0.00 1024.00 1024.00">
<g stroke-width="2.00" fill="none" stroke-linecap="butt">
<path stroke="#d2cdad" vector-effect="non-scaling-stroke" d="
  M 516.87 217.77
  Q 514.53 250.28 517.02 282.95"
/>
<path stroke="#dce1ca" vector-effect="non-scaling-stroke" d="
  M 517.02 282.95
  C 472.90 286.42 434.69 301.61 399.37 325.87
  C 370.46 345.73 348.81 371.14 330.71 401.21
  Q 312.91 430.76 305.44 464.19
  C 300.59 485.90 298.17 507.54 299.85 529.79
  C 301.30 548.91 304.63 568.18 309.86 586.70
  A 0.85 0.84 82.5 0 1 309.04 587.78
  Q 293.79 587.60 278.47 589.54
  C 269.96 590.62 258.33 593.12 248.28 594.52
  A 2.16 2.16 0.0 0 1 245.83 592.18
  Q 246.04 589.85 244.83 588.79"
/>
<path stroke="#ded3c3" vector-effect="non-scaling-stroke" d="
  M 803.81 614.69
  Q 795.07 614.70 786.43 614.99
  Q 774.74 615.39 769.06 615.42
  C 699.29 615.85 642.78 612.83 567.24 608.08
  Q 510.12 604.49 446.75 604.08
  Q 437.21 604.02 426.76 604.38
  Q 400.38 605.27 374.00 606.19
  C 347.33 607.13 320.64 609.26 294.00 610.87
  Q 277.55 611.86 246.35 615.71"
/>
<path stroke="#e8e0d3" vector-effect="non-scaling-stroke" d="
  M 812.20 534.76
  Q 780.84 525.60 748.91 522.75
  A 0.77 0.76 -87.2 0 1 748.21 521.97
  Q 748.92 474.62 732.51 430.23
  Q 728.77 420.12 720.29 403.84
  C 716.62 396.78 712.06 390.10 707.64 383.35
  C 693.48 361.71 675.08 342.93 654.47 327.33
  Q 644.30 319.63 631.60 312.66
  C 614.51 303.28 599.83 295.61 581.75 291.19
  C 568.67 287.99 555.83 283.82 542.25 283.33
  Q 529.30 282.86 517.02 282.95"
/>
<path stroke="#ded3c3" vector-effect="non-scaling-stroke" d="
  M 787.59 654.35
  Q 751.42 652.95 731.25 653.02
  C 599.50 653.46 457.08 652.85 286.33 653.18
  C 280.78 653.19 274.78 653.52 269.00 653.64
  Q 266.24 653.70 263.27 655.47"
/>
<path stroke="#baaea3" vector-effect="non-scaling-stroke" d="
  M 778.52 673.89
  Q 529.95 673.65 281.41 674.05
  C 278.77 674.05 275.68 674.39 272.79 674.38"
/>
<path stroke="#baaea3" vector-effect="non-scaling-stroke" d="
  M 751.20 710.66
  Q 720.78 710.02 677.50 710.11
  Q 551.42 710.36 325.50 710.08
  Q 312.21 710.06 298.17 710.74"
/>
<path stroke="#baaea3" vector-effect="non-scaling-stroke" d="
  M 740.73 725.35
  Q 679.94 726.06 619.25 726.02
  Q 508.88 725.94 398.50 725.95
  C 369.12 725.95 339.86 725.35 310.44 725.96"
/>
<path stroke="#baaea3" vector-effect="non-scaling-stroke" d="
  M 697.25 762.47
  C 695.01 762.35 692.74 762.08 690.58 762.08
  Q 520.72 762.06 350.66 761.95"
/>
<path stroke="#baaea3" vector-effect="non-scaling-stroke" d="
  M 688.43 768.75
  Q 687.91 766.45 688.65 764.38
  Q 688.90 763.67 688.21 763.97
  Q 685.46 765.17 686.20 768.24
  A 0.81 0.80 -28.0 0 1 685.96 769.02
  Q 684.82 770.06 685.67 771.83"
/>
<path stroke="#e8e0d3" vector-effect="non-scaling-stroke" d="
  M 684.75 773.01
  L 685.81 765.43
  A 0.38 0.38 0.0 0 0 685.14 765.13
  Q 684.99 765.31 684.78 765.38
  Q 684.53 765.46 684.71 765.28
  L 685.01 764.98
  A 0.15 0.15 0.0 0 0 684.87 764.73
  Q 683.78 764.96 683.69 766.01
  Q 683.46 768.82 683.77 773.66"
/>
<path stroke="#baaea3" vector-effect="non-scaling-stroke" d="
  M 678.98 777.54
  L 369.82 777.99"
/>
<path stroke="#e8e0d3" vector-effect="non-scaling-stroke" d="
  M 365.53 772.24
  C 366.05 768.78 363.36 767.11 361.40 764.96
  Q 361.23 764.76 361.00 764.88
  Q 360.86 764.95 360.72 765.02
  A 0.34 0.33 -41.3 0 0 360.68 765.60
  Q 363.92 767.68 364.81 770.90"
/>
<path stroke="#ded3c3" vector-effect="non-scaling-stroke" d="
  M 591.96 349.63
  Q 596.09 347.82 600.29 347.75
  A 0.55 0.55 0.0 0 0 600.79 346.98
  Q 594.53 332.50 585.83 319.62
  C 577.44 307.21 570.47 299.09 557.35 293.88
  A 1.76 1.76 0.0 0 0 555.29 294.45
  Q 550.96 300.17 544.24 304.02
  C 530.82 311.71 516.31 318.01 504.31 328.27
  C 492.04 338.77 482.62 351.66 476.58 366.68
  Q 473.07 375.40 472.03 379.04
  C 465.35 402.31 465.76 429.82 477.23 451.75
  Q 488.38 473.06 506.97 490.00
  Q 508.91 491.77 511.28 493.14
  Q 511.93 493.52 511.78 492.79
  C 507.14 469.40 513.40 444.28 522.51 422.25
  Q 534.86 392.42 557.45 371.94
  Q 572.86 357.98 591.96 349.63"
/>
<path stroke="#ded3c3" vector-effect="non-scaling-stroke" d="
  M 557.08 463.29
  C 559.66 457.03 562.25 448.50 565.17 442.28
  Q 575.94 419.37 595.13 403.64
  C 605.28 395.33 622.65 387.03 617.14 370.27
  Q 615.39 364.97 610.70 367.41
  C 580.05 383.34 550.54 404.92 540.71 440.01
  Q 538.85 446.64 536.69 459.60
  Q 533.14 480.80 532.44 502.23
  A 0.30 0.30 0.0 0 0 533.00 502.38
  C 535.12 498.68 537.12 495.09 539.86 491.69
  C 547.25 482.53 552.51 474.35 557.08 463.29"
/>
<path stroke="#c2d3be" vector-effect="non-scaling-stroke" d="
  M 661.38 494.33
  C 671.76 471.09 674.26 446.92 674.02 421.17
  Q 674.01 420.68 673.53 420.71
  C 663.24 421.42 652.14 421.79 642.71 423.30
  C 621.81 426.66 601.70 432.28 584.68 445.42
  Q 574.43 453.33 563.23 465.46
  C 558.01 471.11 552.27 480.71 549.93 486.47
  Q 538.27 515.14 537.46 546.00
  Q 537.26 553.49 537.80 555.48
  C 539.71 562.53 550.15 565.07 556.50 564.99
  C 580.84 564.68 606.94 556.79 625.95 540.95
  Q 640.74 528.63 651.56 512.81
  C 655.44 507.14 658.54 500.68 661.38 494.33"
/>
<path stroke="#cdd4af" vector-effect="non-scaling-stroke" d="
  M 395.75 455.71
  C 405.56 460.90 416.49 465.71 425.27 471.09
  C 447.76 484.88 467.48 503.42 485.35 523.63
  Q 499.04 539.11 513.13 554.23
  C 515.96 557.27 518.64 561.05 521.61 564.38
  A 1.50 1.49 73.2 0 0 522.50 564.86
  C 530.29 565.94 526.87 549.87 525.82 546.35
  C 523.66 539.09 517.33 530.57 512.54 524.24
  Q 496.92 503.59 476.78 479.45
  C 464.93 465.25 450.43 451.75 433.84 442.98
  Q 401.44 425.86 364.87 423.04
  Q 364.40 423.01 364.39 423.49
  C 364.12 436.69 363.85 450.76 366.11 463.17
  Q 376.50 520.15 426.97 550.77
  C 439.85 558.57 453.39 561.88 468.50 563.62
  C 473.83 564.24 486.48 565.05 484.80 555.48
  Q 484.11 551.54 481.50 548.49
  Q 458.34 521.45 431.55 493.06
  C 422.99 483.99 414.12 472.97 405.36 463.89
  Q 401.52 459.91 395.60 455.95
  A 0.14 0.14 0.0 0 1 395.75 455.71"
/>
<path stroke="#8a8d70" vector-effect="non-scaling-stroke" d="
  M 677.9297 777.8000
  A 2.29 0.04 -1.0 0 0 675.6393 777.8000
  A 2.29 0.04 -1.0 0 0 673.3503 777.8800
  A 2.29 0.04 -1.0 0 0 675.6407 777.8800
  A 2.29 0.04 -1.0 0 0 677.9297 777.8000"
/>
</g>
<path fill="#c5cda3" d="
  M 516.87 217.77
  Q 514.53 250.28 517.02 282.95
  C 472.90 286.42 434.69 301.61 399.37 325.87
  C 370.46 345.73 348.81 371.14 330.71 401.21
  Q 312.91 430.76 305.44 464.19
  C 300.59 485.90 298.17 507.54 299.85 529.79
  C 301.30 548.91 304.63 568.18 309.86 586.70
  A 0.85 0.84 82.5 0 1 309.04 587.78
  Q 293.79 587.60 278.47 589.54
  C 269.96 590.62 258.33 593.12 248.28 594.52
  A 2.16 2.16 0.0 0 1 245.83 592.18
  Q 246.04 589.85 244.83 588.79
  Q 243.56 582.06 242.05 575.40
  C 239.64 564.72 238.43 554.66 237.07 544.16
  Q 235.90 535.15 235.77 526.25
  C 235.59 514.47 234.94 501.96 236.61 490.29
  C 237.19 486.26 237.13 481.86 237.65 478.24
  Q 241.55 451.10 249.89 425.01
  C 252.53 416.73 256.61 406.80 260.10 397.65
  Q 262.41 391.59 264.65 386.92
  Q 278.12 358.82 293.44 337.93
  Q 316.71 306.17 344.69 283.69
  Q 356.57 274.14 376.65 261.44
  Q 414.05 237.76 451.87 227.12
  Q 470.20 221.96 497.08 218.38
  C 503.64 217.50 510.26 217.74 516.87 217.77
  Z"
/>
<path fill="#deccb6" d="
  M 516.87 217.77
  C 527.88 217.76 539.19 217.37 549.68 218.50
  Q 582.80 222.03 615.78 232.72
  Q 627.73 236.59 636.37 240.64
  C 647.35 245.79 658.92 251.30 668.84 257.09
  Q 708.32 280.14 737.83 315.03
  C 757.16 337.89 773.85 362.36 785.45 389.30
  Q 790.45 400.91 796.48 418.29
  C 803.33 438.07 807.92 458.37 810.84 479.09
  C 813.39 497.22 812.72 516.20 812.20 534.76
  Q 780.84 525.60 748.91 522.75
  A 0.77 0.76 -87.2 0 1 748.21 521.97
  Q 748.92 474.62 732.51 430.23
  Q 728.77 420.12 720.29 403.84
  C 716.62 396.78 712.06 390.10 707.64 383.35
  C 693.48 361.71 675.08 342.93 654.47 327.33
  Q 644.30 319.63 631.60 312.66
  C 614.51 303.28 599.83 295.61 581.75 291.19
  C 568.67 287.99 555.83 283.82 542.25 283.33
  Q 529.30 282.86 517.02 282.95
  Q 514.53 250.28 516.87 217.77
  Z"
/>
<path fill="#f2f4f0" d="
  M 517.02 282.95
  Q 529.30 282.86 542.25 283.33
  C 555.83 283.82 568.67 287.99 581.75 291.19
  C 599.83 295.61 614.51 303.28 631.60 312.66
  Q 644.30 319.63 654.47 327.33
  C 675.08 342.93 693.48 361.71 707.64 383.35
  C 712.06 390.10 716.62 396.78 720.29 403.84
  Q 728.77 420.12 732.51 430.23
  Q 748.92 474.62 748.21 521.97
  A 0.77 0.76 -87.2 0 0 748.91 522.75
  Q 780.84 525.60 812.20 534.76
  Q 811.97 552.75 810.64 571.64
  C 809.93 581.61 808.26 592.45 807.06 602.91
  Q 806.67 606.31 803.81 614.69
  Q 795.07 614.70 786.43 614.99
  Q 774.74 615.39 769.06 615.42
  C 699.29 615.85 642.78 612.83 567.24 608.08
  Q 510.12 604.49 446.75 604.08
  Q 437.21 604.02 426.76 604.38
  Q 400.38 605.27 374.00 606.19
  C 347.33 607.13 320.64 609.26 294.00 610.87
  Q 277.55 611.86 246.35 615.71
  Q 244.75 612.02 244.78 607.75
  Q 244.86 598.26 244.83 588.79
  Q 246.04 589.85 245.83 592.18
  A 2.16 2.16 0.0 0 0 248.28 594.52
  C 258.33 593.12 269.96 590.62 278.47 589.54
  Q 293.79 587.60 309.04 587.78
  A 0.85 0.84 82.5 0 0 309.86 586.70
  C 304.63 568.18 301.30 548.91 299.85 529.79
  C 298.17 507.54 300.59 485.90 305.44 464.19
  Q 312.91 430.76 330.71 401.21
  C 348.81 371.14 370.46 345.73 399.37 325.87
  C 434.69 301.61 472.90 286.42 517.02 282.95
  Z
  M 591.96 349.63
  Q 596.09 347.82 600.29 347.75
  A 0.55 0.55 0.0 0 0 600.79 346.98
  Q 594.53 332.50 585.83 319.62
  C 577.44 307.21 570.47 299.09 557.35 293.88
  A 1.76 1.76 0.0 0 0 555.29 294.45
  Q 550.96 300.17 544.24 304.02
  C 530.82 311.71 516.31 318.01 504.31 328.27
  C 492.04 338.77 482.62 351.66 476.58 366.68
  Q 473.07 375.40 472.03 379.04
  C 465.35 402.31 465.76 429.82 477.23 451.75
  Q 488.38 473.06 506.97 490.00
  Q 508.91 491.77 511.28 493.14
  Q 511.93 493.52 511.78 492.79
  C 507.14 469.40 513.40 444.28 522.51 422.25
  Q 534.86 392.42 557.45 371.94
  Q 572.86 357.98 591.96 349.63
  Z
  M 557.08 463.29
  C 559.66 457.03 562.25 448.50 565.17 442.28
  Q 575.94 419.37 595.13 403.64
  C 605.28 395.33 622.65 387.03 617.14 370.27
  Q 615.39 364.97 610.70 367.41
  C 580.05 383.34 550.54 404.92 540.71 440.01
  Q 538.85 446.64 536.69 459.60
  Q 533.14 480.80 532.44 502.23
  A 0.30 0.30 0.0 0 0 533.00 502.38
  C 535.12 498.68 537.12 495.09 539.86 491.69
  C 547.25 482.53 552.51 474.35 557.08 463.29
  Z
  M 661.38 494.33
  C 671.76 471.09 674.26 446.92 674.02 421.17
  Q 674.01 420.68 673.53 420.71
  C 663.24 421.42 652.14 421.79 642.71 423.30
  C 621.81 426.66 601.70 432.28 584.68 445.42
  Q 574.43 453.33 563.23 465.46
  C 558.01 471.11 552.27 480.71 549.93 486.47
  Q 538.27 515.14 537.46 546.00
  Q 537.26 553.49 537.80 555.48
  C 539.71 562.53 550.15 565.07 556.50 564.99
  C 580.84 564.68 606.94 556.79 625.95 540.95
  Q 640.74 528.63 651.56 512.81
  C 655.44 507.14 658.54 500.68 661.38 494.33
  Z
  M 395.75 455.71
  C 405.56 460.90 416.49 465.71 425.27 471.09
  C 447.76 484.88 467.48 503.42 485.35 523.63
  Q 499.04 539.11 513.13 554.23
  C 515.96 557.27 518.64 561.05 521.61 564.38
  A 1.50 1.49 73.2 0 0 522.50 564.86
  C 530.29 565.94 526.87 549.87 525.82 546.35
  C 523.66 539.09 517.33 530.57 512.54 524.24
  Q 496.92 503.59 476.78 479.45
  C 464.93 465.25 450.43 451.75 433.84 442.98
  Q 401.44 425.86 364.87 423.04
  Q 364.40 423.01 364.39 423.49
  C 364.12 436.69 363.85 450.76 366.11 463.17
  Q 376.50 520.15 426.97 550.77
  C 439.85 558.57 453.39 561.88 468.50 563.62
  C 473.83 564.24 486.48 565.05 484.80 555.48
  Q 484.11 551.54 481.50 548.49
  Q 458.34 521.45 431.55 493.06
  C 422.99 483.99 414.12 472.97 405.36 463.89
  Q 401.52 459.91 395.60 455.95
  A 0.14 0.14 0.0 0 1 395.75 455.71
  Z"
/>
<path fill="#c9b295" d="
  M 591.96 349.63
  Q 572.86 357.98 557.45 371.94
  Q 534.86 392.42 522.51 422.25
  C 513.40 444.28 507.14 469.40 511.78 492.79
  Q 511.93 493.52 511.28 493.14
  Q 508.91 491.77 506.97 490.00
  Q 488.38 473.06 477.23 451.75
  C 465.76 429.82 465.35 402.31 472.03 379.04
  Q 473.07 375.40 476.58 366.68
  C 482.62 351.66 492.04 338.77 504.31 328.27
  C 516.31 318.01 530.82 311.71 544.24 304.02
  Q 550.96 300.17 555.29 294.45
  A 1.76 1.76 0.0 0 1 557.35 293.88
  C 570.47 299.09 577.44 307.21 585.83 319.62
  Q 594.53 332.50 600.79 346.98
  A 0.55 0.55 0.0 0 1 600.29 347.75
  Q 596.09 347.82 591.96 349.63
  Z"
/>
<path fill="#c9b295" d="
  M 557.08 463.29
  C 552.51 474.35 547.25 482.53 539.86 491.69
  C 537.12 495.09 535.12 498.68 533.00 502.38
  A 0.30 0.30 0.0 0 1 532.44 502.23
  Q 533.14 480.80 536.69 459.60
  Q 538.85 446.64 540.71 440.01
  C 550.54 404.92 580.05 383.34 610.70 367.41
  Q 615.39 364.97 617.14 370.27
  C 622.65 387.03 605.28 395.33 595.13 403.64
  Q 575.94 419.37 565.17 442.28
  C 562.25 448.50 559.66 457.03 557.08 463.29
  Z"
/>
<path fill="#92b28b" d="
  M 661.38 494.33
  C 658.54 500.68 655.44 507.14 651.56 512.81
  Q 640.74 528.63 625.95 540.95
  C 606.94 556.79 580.84 564.68 556.50 564.99
  C 550.15 565.07 539.71 562.53 537.80 555.48
  Q 537.26 553.49 537.46 546.00
  Q 538.27 515.14 549.93 486.47
  C 552.27 480.71 558.01 471.11 563.23 465.46
  Q 574.43 453.33 584.68 445.42
  C 601.70 432.28 621.81 426.66 642.71 423.30
  C 652.14 421.79 663.24 421.42 673.53 420.71
  Q 674.01 420.68 674.02 421.17
  C 674.26 446.92 671.76 471.09 661.38 494.33
  Z"
/>
<path fill="#a7b36d" d="
  M 395.60 455.95
  Q 401.52 459.91 405.36 463.89
  C 414.12 472.97 422.99 483.99 431.55 493.06
  Q 458.34 521.45 481.50 548.49
  Q 484.11 551.54 484.80 555.48
  C 486.48 565.05 473.83 564.24 468.50 563.62
  C 453.39 561.88 439.85 558.57 426.97 550.77
  Q 376.50 520.15 366.11 463.17
  C 363.85 450.76 364.12 436.69 364.39 423.49
  Q 364.40 423.01 364.87 423.04
  Q 401.44 425.86 433.84 442.98
  C 450.43 451.75 464.93 465.25 476.78 479.45
  Q 496.92 503.59 512.54 524.24
  C 517.33 530.57 523.66 539.09 525.82 546.35
  C 526.87 549.87 530.29 565.94 522.50 564.86
  A 1.50 1.49 73.2 0 1 521.61 564.38
  C 518.64 561.05 515.96 557.27 513.13 554.23
  Q 499.04 539.11 485.35 523.63
  C 467.48 503.42 447.76 484.88 425.27 471.09
  C 416.49 465.71 405.56 460.90 395.75 455.71
  A 0.14 0.14 0.0 0 0 395.60 455.95
  Z"
/>
<path fill="#c9b295" d="
  M 803.81 614.69
  Q 798.57 628.88 793.38 642.23
  Q 790.69 649.13 787.59 654.35
  Q 751.42 652.95 731.25 653.02
  C 599.50 653.46 457.08 652.85 286.33 653.18
  C 280.78 653.19 274.78 653.52 269.00 653.64
  Q 266.24 653.70 263.27 655.47
  Q 254.13 636.09 246.35 615.71
  Q 277.55 611.86 294.00 610.87
  C 320.64 609.26 347.33 607.13 374.00 606.19
  Q 400.38 605.27 426.76 604.38
  Q 437.21 604.02 446.75 604.08
  Q 510.12 604.49 567.24 608.08
  C 642.78 612.83 699.29 615.85 769.06 615.42
  Q 774.74 615.39 786.43 614.99
  Q 795.07 614.70 803.81 614.69
  Z"
/>
<path fill="#f2f4f0" d="
  M 787.59 654.35
  Q 786.05 656.81 785.55 658.38
  Q 782.93 666.60 778.52 673.89
  Q 529.95 673.65 281.41 674.05
  C 278.77 674.05 275.68 674.39 272.79 674.38
  L 263.27 655.47
  Q 266.24 653.70 269.00 653.64
  C 274.78 653.52 280.78 653.19 286.33 653.18
  C 457.08 652.85 599.50 653.46 731.25 653.02
  Q 751.42 652.95 787.59 654.35
  Z"
/>
<path fill="#826755" d="
  M 778.52 673.89
  Q 775.02 680.15 770.64 685.79
  C 764.18 694.09 757.89 702.57 751.20 710.66
  Q 720.78 710.02 677.50 710.11
  Q 551.42 710.36 325.50 710.08
  Q 312.21 710.06 298.17 710.74
  Q 287.17 698.11 277.93 684.31
  Q 274.97 679.88 272.79 674.38
  C 275.68 674.39 278.77 674.05 281.41 674.05
  Q 529.95 673.65 778.52 673.89
  Z"
/>
<path fill="#f2f4f0" d="
  M 751.20 710.66
  L 740.73 725.35
  Q 679.94 726.06 619.25 726.02
  Q 508.88 725.94 398.50 725.95
  C 369.12 725.95 339.86 725.35 310.44 725.96
  L 298.17 710.74
  Q 312.21 710.06 325.50 710.08
  Q 551.42 710.36 677.50 710.11
  Q 720.78 710.02 751.20 710.66
  Z"
/>
<path fill="#826755" d="
  M 740.73 725.35
  C 739.47 726.99 738.36 728.96 736.84 730.35
  Q 716.05 749.42 702.76 760.26
  Q 700.92 761.76 697.25 762.47
  C 695.01 762.35 692.74 762.08 690.58 762.08
  Q 520.72 762.06 350.66 761.95
  Q 345.01 759.43 339.84 754.91
  Q 327.93 744.47 316.63 733.37
  Q 313.16 729.97 310.44 725.96
  C 339.86 725.35 369.12 725.95 398.50 725.95
  Q 508.88 725.94 619.25 726.02
  Q 679.94 726.06 740.73 725.35
  Z"
/>
<path fill="#f2f4f0" d="
  M 697.25 762.47
  L 689.84 763.59
  Q 689.30 763.67 689.06 764.15
  Q 688.05 766.15 688.43 768.75
  Q 687.91 766.45 688.65 764.38
  Q 688.90 763.67 688.21 763.97
  Q 685.46 765.17 686.20 768.24
  A 0.81 0.80 -28.0 0 1 685.96 769.02
  Q 684.82 770.06 685.67 771.83
  L 684.75 773.01
  L 685.81 765.43
  A 0.38 0.38 0.0 0 0 685.14 765.13
  Q 684.99 765.31 684.78 765.38
  Q 684.53 765.46 684.71 765.28
  L 685.01 764.98
  A 0.15 0.15 0.0 0 0 684.87 764.73
  Q 683.78 764.96 683.69 766.01
  Q 683.46 768.82 683.77 773.66
  L 678.98 777.54
  L 369.82 777.99
  L 365.53 772.24
  C 366.05 768.78 363.36 767.11 361.40 764.96
  Q 361.23 764.76 361.00 764.88
  Q 360.86 764.95 360.72 765.02
  A 0.34 0.33 -41.3 0 0 360.68 765.60
  Q 363.92 767.68 364.81 770.90
  Q 364.16 770.35 363.82 769.58
  A 1.15 1.13 2.5 0 0 363.29 769.01
  Q 360.09 767.40 358.07 764.51
  Q 357.44 763.60 357.64 764.68
  Q 357.93 766.28 359.40 767.14
  Q 359.59 767.25 359.62 767.41
  Q 359.71 767.86 359.25 767.50
  Q 357.61 766.21 357.19 764.15
  Q 357.10 763.67 356.63 763.55
  L 350.66 761.95
  Q 520.72 762.06 690.58 762.08
  C 692.74 762.08 695.01 762.35 697.25 762.47
  Z"
/>
<path fill="#826755" d="
  M 688.43 768.75
  Q 686.12 769.32 685.67 771.83
  Q 684.82 770.06 685.96 769.02
  A 0.81 0.80 -28.0 0 0 686.20 768.24
  Q 685.46 765.17 688.21 763.97
  Q 688.90 763.67 688.65 764.38
  Q 687.91 766.45 688.43 768.75
  Z"
/>
<path fill="#deccb6" d="
  M 684.75 773.01
  L 683.77 773.66
  Q 683.46 768.82 683.69 766.01
  Q 683.78 764.96 684.87 764.73
  A 0.15 0.15 0.0 0 1 685.01 764.98
  L 684.71 765.28
  Q 684.53 765.46 684.78 765.38
  Q 684.99 765.31 685.14 765.13
  A 0.38 0.38 0.0 0 1 685.81 765.43
  L 684.75 773.01
  Z"
/>
<path fill="#deccb6" d="
  M 365.53 772.24
  L 364.81 770.90
  Q 363.92 767.68 360.68 765.60
  A 0.34 0.33 -41.3 0 1 360.72 765.02
  Q 360.86 764.95 361.00 764.88
  Q 361.23 764.76 361.40 764.96
  C 363.36 767.11 366.05 768.78 365.53 772.24
  Z"
/>
<path fill="#826755" d="
  M 678.98 777.54
  Q 617.73 816.99 544.76 821.10
  Q 536.50 821.57 507.26 821.17
  Q 495.71 821.01 487.31 820.04
  Q 423.83 812.72 369.82 777.99
  L 678.98 777.54
  Z
  M 677.9297 777.8000
  A 2.29 0.04 -1.0 0 0 675.6393 777.8000
  A 2.29 0.04 -1.0 0 0 673.3503 777.8800
  A 2.29 0.04 -1.0 0 0 675.6407 777.8800
  A 2.29 0.04 -1.0 0 0 677.9297 777.8000
  Z"
/>
<ellipse fill="#92b28b" cx="0.00" cy="0.00" transform="translate(675.64,777.84) rotate(-1.0)" rx="2.29" ry="0.04"/>
</svg>
